<svg width="180" height="180" viewBox="0 0 180 180" fill="none" xmlns="http://www.w3.org/2000/svg">
<path d="M136.835 167.81C133.463 167.81 130.373 167.096 127.563 165.667C124.941 164.417 122.412 162.72 119.977 160.577C116.605 157.541 112.859 153.522 108.738 148.521C104.616 143.52 100.308 138.162 95.8127 132.447C91.5045 126.553 87.3834 120.837 83.4498 115.3C79.7036 109.585 76.5189 104.584 73.8966 100.298C72.5852 100.298 71.0868 100.209 69.401 100.03C67.7151 99.851 66.1228 99.5831 64.6244 99.226C61.8146 98.3332 60.4098 97.4398 60.4098 96.547C60.4098 95.8324 60.9717 95.2966 62.0956 94.9395C63.2195 94.5825 64.4369 94.3146 65.7483 94.1358C71.9298 93.2429 79.4226 91.9925 88.2263 90.3851C97.0301 88.5989 106.021 86.2773 115.2 83.4195C124.566 80.3834 133.276 76.9006 141.331 72.9712C149.573 68.8634 156.222 64.1302 161.28 58.7721C166.338 53.2352 168.866 46.9842 168.866 40.0186C168.866 34.4818 167.18 29.8381 163.809 26.0874C160.437 22.3367 156.035 19.3004 150.603 16.9786C145.358 14.4781 139.645 12.6028 133.463 11.3525C127.282 10.1023 121.288 9.29858 115.481 8.94138C109.861 8.40557 105.085 8.13766 101.151 8.13766C91.4106 8.13766 80.7335 9.20929 69.12 11.3525C57.5065 13.4958 46.08 16.2642 34.841 19.6577C23.602 23.0512 13.6742 26.8019 5.05756 30.9098C4.87023 31.0883 4.49561 31.267 3.93366 31.4456C3.55902 31.6242 3.18439 31.7135 2.80975 31.7135C1.68585 31.7135 1.1239 30.999 1.1239 29.5702C1.1239 25.9981 3.18439 22.8725 7.30536 20.1935C11.4264 17.3358 16.7649 14.8353 23.321 12.6921C30.0644 10.5488 37.2761 8.76277 44.9561 7.33394C52.636 5.7265 60.1288 4.47625 67.4341 3.58324C74.927 2.69022 81.4829 2.0651 87.1024 1.70788C92.9094 1.17208 97.0301 0.904175 99.4654 0.904175C104.71 0.904175 110.798 1.26138 117.729 1.97579C124.66 2.5116 131.684 3.67254 138.802 5.45859C146.107 7.06604 152.851 9.4772 159.032 12.6921C165.214 15.907 170.178 20.0149 173.924 25.0158C177.858 29.8381 179.824 35.9107 179.824 43.2335C179.824 52.1636 177.015 59.9329 171.395 66.5414C165.776 73.1499 158.47 78.6864 149.479 83.1516C140.675 87.6169 131.122 91.1888 120.82 93.8679C110.704 96.3682 101.151 98.1544 92.16 99.226C94.2203 104.227 97.0301 110.21 100.589 117.176C104.335 124.141 108.457 130.928 112.952 137.537C117.448 144.145 121.943 149.682 126.439 154.147C131.122 158.433 135.243 160.577 138.802 160.577C141.986 160.577 144.421 159.505 146.107 157.362C147.981 155.04 149.292 152.182 150.041 148.789C150.79 145.395 151.258 142.091 151.446 138.876C151.633 135.483 151.727 132.714 151.727 130.571V128.964C151.727 127.356 152.195 126.553 153.132 126.553C154.818 126.553 156.316 127.535 157.627 129.5C158.939 131.464 159.969 133.607 160.718 135.929C161.467 138.251 161.842 140.037 161.842 141.287C162.216 145.753 161.28 150.039 159.032 154.147C156.784 158.076 153.694 161.291 149.76 163.792C145.826 166.471 141.518 167.81 136.835 167.81ZM27.8166 176.383C23.6956 176.383 20.7922 174.955 19.1063 172.097C17.4205 169.418 16.5776 166.114 16.5776 162.184C16.5776 156.29 17.9824 149.146 20.7922 140.752C23.602 132.179 27.161 123.159 31.4693 113.693C35.9649 104.048 40.7415 94.5825 45.799 85.2949C50.8566 76.0073 55.6332 67.4343 60.1288 59.5758C64.8119 51.7173 68.6516 45.3767 71.6488 40.5544C73.8966 36.8037 76.2379 32.7851 78.6732 28.4986C81.1084 24.0335 83.7307 20.1042 86.5405 16.7107C87.4769 15.4604 89.0693 14.6567 91.3171 14.2995C93.5649 13.9423 95.3442 13.7637 96.6556 13.7637C98.154 13.7637 99.8398 14.1209 101.713 14.8353C103.586 15.3712 104.523 16.6214 104.523 18.586V19.1218C104.523 21.4437 103.493 23.7656 101.432 26.0874C93.0029 39.1256 84.5737 51.6278 76.1444 63.5944C67.9026 75.5611 60.1288 88.4206 52.8234 102.173C51.1376 105.031 48.7962 109.139 45.799 114.497C42.8019 119.676 39.6176 125.392 36.2459 131.643C33.0615 137.894 30.439 144.056 28.3785 150.128C26.3181 156.022 25.4751 161.202 25.8498 165.667C25.8498 166.56 26.0371 167.542 26.4117 168.614C26.9737 169.686 27.9102 170.221 29.2215 170.221C30.158 170.221 30.6263 171.025 30.6263 172.633C30.6263 173.525 30.3454 174.329 29.7834 175.044C29.4088 175.937 28.7532 176.383 27.8166 176.383Z" fill="#FFA818"/>
</svg>
