<svg width="512" height="512" viewBox="0 0 512 512" fill="none" xmlns="http://www.w3.org/2000/svg">
<path d="M389.22 477.327C379.629 477.327 370.838 475.294 362.846 471.231C355.387 467.674 348.194 462.848 341.267 456.752C331.676 448.116 321.02 436.685 309.298 422.46C297.576 408.234 285.321 392.993 272.534 376.737C260.28 359.972 248.557 343.715 237.368 327.966C226.712 311.709 217.654 297.484 210.195 285.291C206.465 285.291 202.203 285.038 197.407 284.529C192.612 284.021 188.083 283.259 183.821 282.243C175.828 279.703 171.832 277.162 171.832 274.622C171.832 272.59 173.431 271.066 176.628 270.05C179.824 269.035 183.287 268.273 187.017 267.764C204.6 265.224 225.913 261.668 250.955 257.095C275.997 252.015 301.572 245.411 327.68 237.282C354.32 228.646 379.096 218.739 402.007 207.562C425.451 195.878 444.366 182.415 458.752 167.174C473.138 151.425 480.331 133.644 480.331 113.831C480.331 98.0817 475.536 84.8729 465.945 74.2043C456.354 63.5356 443.833 54.899 428.382 48.2947C413.462 41.1823 397.212 35.848 379.629 32.2917C362.046 28.7355 344.997 26.4493 328.479 25.4333C312.495 23.9092 298.908 23.1472 287.719 23.1472C260.012 23.1472 229.642 26.1953 196.608 32.2917C163.574 38.3881 131.072 46.2625 99.1032 55.9152C67.1345 65.5678 38.8954 76.2364 14.386 87.9211C13.8531 88.4291 12.7875 88.9371 11.1891 89.4452C10.1235 89.9533 9.05784 90.2072 7.99222 90.2072C4.79534 90.2072 3.1969 88.1751 3.1969 84.1109C3.1969 73.9502 9.05784 65.0597 20.7797 57.4392C32.5017 49.3107 47.6868 42.1983 66.3352 36.1019C85.5165 30.0056 106.03 24.9252 127.875 20.861C149.72 16.2887 171.033 12.7325 191.813 10.1924C213.126 7.6522 231.774 5.87409 247.758 4.858C264.276 3.33393 275.997 2.5719 282.924 2.5719C297.843 2.5719 315.158 3.58795 334.873 5.62004C354.587 7.14414 374.568 10.4464 394.814 15.5267C415.594 20.099 434.775 26.9574 452.358 36.1019C469.941 45.2465 484.061 56.9312 494.717 71.1561C505.906 84.8729 511.5 102.146 511.5 122.975C511.5 148.376 503.508 170.476 487.524 189.273C471.54 208.071 450.76 223.819 425.185 236.52C400.143 249.221 372.97 259.382 343.664 267.002C314.892 274.114 287.719 279.195 262.144 282.243C268.005 296.468 275.997 313.487 286.121 333.3C296.776 353.113 308.499 372.418 321.286 391.216C334.074 410.013 346.861 425.761 359.649 438.463C372.97 450.655 384.691 456.752 394.814 456.752C403.872 456.752 410.799 453.703 415.594 447.607C420.923 441.002 424.652 432.875 426.783 423.222C428.915 413.569 430.246 404.17 430.779 395.026C431.313 385.373 431.579 377.499 431.579 371.402V366.83C431.579 362.258 432.911 359.972 435.575 359.972C440.37 359.972 444.632 362.766 448.362 368.354C452.092 373.942 455.022 380.039 457.154 386.643C459.285 393.248 460.35 398.328 460.35 401.884C461.416 414.585 458.752 426.778 452.358 438.463C445.964 449.64 437.173 458.784 425.984 465.896C414.795 473.517 402.541 477.327 389.22 477.327ZM79.1227 501.712C67.4008 501.712 59.1423 497.649 54.3469 489.52C49.5516 481.899 47.154 472.501 47.154 461.324C47.154 444.559 51.1501 424.237 59.1423 400.36C67.1345 375.975 77.2579 350.319 89.5126 323.393C102.3 295.96 115.887 269.035 130.273 242.617C144.659 216.199 158.245 191.813 171.033 169.46C184.354 147.107 195.276 129.072 203.801 115.355C210.195 104.686 216.854 93.2554 223.781 81.0627C230.708 68.3619 238.167 57.1853 246.16 47.5326C248.823 43.9764 253.353 41.6902 259.746 40.6742C266.14 39.6581 271.201 39.1501 274.932 39.1501C279.194 39.1501 283.989 40.1662 289.317 42.1983C294.646 43.7224 297.31 47.2787 297.31 52.867V54.3911C297.31 60.9954 294.379 67.5998 288.518 74.2043C264.542 111.291 240.565 146.852 216.588 180.891C193.145 214.929 171.033 251.508 150.253 290.625C145.458 298.754 138.798 310.439 130.273 325.68C121.748 340.412 112.69 356.67 103.099 374.451C94.0415 392.231 86.5821 409.758 80.7212 427.032C74.8603 443.797 72.4626 458.529 73.5282 471.231C73.5282 473.77 74.0611 476.565 75.1266 479.613C76.7251 482.661 79.3891 484.185 83.1188 484.185C85.7829 484.185 87.1149 486.471 87.1149 491.044C87.1149 493.583 86.3157 495.87 84.7173 497.902C83.6517 500.442 81.7868 501.712 79.1227 501.712Z" fill="#FFA818"/>
</svg>
