<svg width="192" height="192" viewBox="0 0 192 192" fill="none" xmlns="http://www.w3.org/2000/svg">
<path d="M145.957 178.998C142.361 178.998 139.064 178.235 136.067 176.711C133.27 175.378 130.573 173.568 127.975 171.282C124.379 168.043 120.383 163.757 115.987 158.422C111.591 153.088 106.996 147.373 102.2 141.276C97.6049 134.989 93.209 128.893 89.0131 122.987C85.0171 116.891 81.6202 111.556 78.823 106.984C77.4243 106.984 75.826 106.889 74.0277 106.698C72.2295 106.508 70.531 106.222 68.9327 105.841C65.9356 104.889 64.4371 103.936 64.4371 102.983C64.4371 102.221 65.0365 101.65 66.2353 101.269C67.4342 100.888 68.7327 100.602 70.1315 100.412C76.7251 99.4591 84.7174 98.1254 94.1081 96.4108C103.499 94.5055 113.089 92.0292 122.88 88.9809C132.87 85.7423 142.161 82.0273 150.753 77.8359C159.544 73.4543 166.637 68.4056 172.032 62.6902C177.427 56.7842 180.124 50.1165 180.124 42.6865C180.124 36.7807 178.326 31.8274 174.729 27.8266C171.133 23.8259 166.437 20.5871 160.643 18.1105C155.048 15.4434 148.955 13.443 142.361 12.1094C135.767 10.7758 129.374 9.91851 123.18 9.5375C117.186 8.96597 112.091 8.6802 107.895 8.6802C97.5046 8.6802 86.1158 9.82327 73.728 12.1094C61.3403 14.3955 49.152 17.3485 37.1637 20.9682C25.1754 24.5879 14.5858 28.5887 5.39475 32.9704C5.19493 33.1609 4.79534 33.3514 4.19593 33.542C3.79632 33.7325 3.3967 33.8277 2.9971 33.8277C1.79827 33.8277 1.19885 33.0657 1.19885 31.5416C1.19885 27.7313 3.3967 24.3974 7.79241 21.5397C12.1881 18.4915 17.8826 15.8244 24.8757 13.5382C32.0687 11.2521 39.7612 9.34697 47.9532 7.8229C56.145 6.10829 64.1374 4.7747 71.9298 3.82215C79.9221 2.86959 86.9151 2.2028 92.9093 1.82177C99.1034 1.25024 103.499 0.964478 106.096 0.964478C111.691 0.964478 118.184 1.34549 125.577 2.10753C132.97 2.67907 140.463 3.9174 148.055 5.82252C155.848 7.53713 163.041 10.109 169.634 13.5382C176.228 16.9675 181.523 21.3492 185.519 26.6835C189.715 31.8274 191.813 38.3048 191.813 46.1157C191.813 55.6412 188.816 63.9284 182.821 70.9775C176.827 78.0266 169.035 83.9322 159.444 88.6951C150.054 93.458 139.864 97.2681 128.874 100.126C118.085 102.793 107.895 104.698 98.304 105.841C100.502 111.176 103.499 117.558 107.295 124.988C111.291 132.418 115.687 139.657 120.482 146.706C125.278 153.755 130.073 159.661 134.868 164.423C139.864 168.996 144.259 171.282 148.055 171.282C151.452 171.282 154.05 170.139 155.848 167.853C157.846 165.376 159.244 162.328 160.044 158.708C160.843 155.088 161.342 151.564 161.542 148.135C161.742 144.515 161.842 141.562 161.842 139.276V137.561C161.842 135.847 162.342 134.989 163.341 134.989C165.139 134.989 166.737 136.037 168.136 138.133C169.535 140.228 170.633 142.514 171.433 144.991C172.232 147.468 172.631 149.373 172.631 150.707C173.031 155.47 172.032 160.042 169.634 164.423C167.237 168.615 163.94 172.044 159.744 174.711C155.548 177.569 150.953 178.998 145.957 178.998ZM29.671 188.142C25.2753 188.142 22.1784 186.618 20.3801 183.57C18.5819 180.712 17.6828 177.188 17.6828 172.996C17.6828 166.71 19.1813 159.089 22.1784 150.135C25.1754 140.991 28.9717 131.37 33.5672 121.273C38.3626 110.985 43.4576 100.888 48.8523 90.9812C54.247 81.0745 59.3421 71.9299 64.1374 63.5476C69.1327 55.1652 73.2283 48.4019 76.4254 43.2581C78.823 39.2573 81.3204 34.9708 83.9181 30.3985C86.5157 25.6357 89.3128 21.4445 92.3099 17.8248C93.3087 16.4912 95.0072 15.6339 97.4049 15.2528C99.8026 14.8718 101.701 14.6813 103.099 14.6813C104.698 14.6813 106.496 15.0623 108.494 15.8244C110.492 16.3959 111.491 17.7295 111.491 19.8251V20.3967C111.491 22.8733 110.392 25.35 108.194 27.8266C99.2031 41.734 90.2119 55.0696 81.2207 67.8341C72.4294 80.5985 64.1374 94.3153 56.345 108.985C54.5468 112.033 52.0494 116.415 48.8523 122.13C45.6554 127.655 42.2588 133.751 38.6623 140.419C35.2656 147.087 32.4683 153.659 30.2705 160.137C28.0726 166.424 27.1735 171.949 27.5731 176.711C27.5731 177.664 27.7729 178.712 28.1725 179.855C28.7719 180.998 29.7709 181.57 31.1696 181.57C32.1686 181.57 32.6681 182.427 32.6681 184.141C32.6681 185.094 32.3684 185.951 31.769 186.713C31.3694 187.666 30.6701 188.142 29.671 188.142Z" fill="#FFA818"/>
</svg>
