<svg width="41" height="43" viewBox="0 0 41 43" fill="none" xmlns="http://www.w3.org/2000/svg">
<path d="M31.168 40.088C30.4 40.088 29.696 39.9173 29.056 39.576C28.4587 39.2773 27.8827 38.872 27.328 38.36C26.56 37.6347 25.7067 36.6747 24.768 35.48C23.8293 34.2853 22.848 33.0053 21.824 31.64C20.8427 30.232 19.904 28.8667 19.008 27.544C18.1547 26.1787 17.4293 24.984 16.832 23.96C16.5333 23.96 16.192 23.9387 15.808 23.896C15.424 23.8533 15.0613 23.7893 14.72 23.704C14.08 23.4907 13.76 23.2773 13.76 23.064C13.76 22.8933 13.888 22.7653 14.144 22.68C14.4 22.5947 14.6773 22.5307 14.976 22.488C16.384 22.2747 18.0907 21.976 20.096 21.592C22.1013 21.1653 24.1493 20.6107 26.24 19.928C28.3733 19.2027 30.3573 18.3707 32.192 17.432C34.0693 16.4507 35.584 15.32 36.736 14.04C37.888 12.7173 38.464 11.224 38.464 9.56C38.464 8.23733 38.08 7.128 37.312 6.232C36.544 5.336 35.5413 4.61066 34.304 4.056C33.1093 3.45867 31.808 3.01067 30.4 2.712C28.992 2.41333 27.6267 2.22133 26.304 2.136C25.024 2.008 23.936 1.944 23.04 1.944C20.8213 1.944 18.3893 2.2 15.744 2.712C13.0987 3.224 10.496 3.88533 7.936 4.696C5.376 5.50667 3.11467 6.40267 1.152 7.384C1.10933 7.42666 1.024 7.46933 0.896 7.512C0.810667 7.55467 0.725333 7.576 0.64 7.576C0.384 7.576 0.256 7.40533 0.256 7.064C0.256 6.21066 0.725333 5.464 1.664 4.824C2.60267 4.14133 3.81867 3.544 5.312 3.032C6.848 2.52 8.49067 2.09333 10.24 1.752C11.9893 1.368 13.696 1.06933 15.36 0.855999C17.0667 0.642666 18.56 0.493332 19.84 0.407997C21.1627 0.279999 22.1013 0.216 22.656 0.216C23.8507 0.216 25.2373 0.301332 26.816 0.471996C28.3947 0.599997 29.9947 0.877331 31.616 1.304C33.28 1.688 34.816 2.264 36.224 3.032C37.632 3.8 38.7627 4.78133 39.616 5.976C40.512 7.128 40.96 8.57867 40.96 10.328C40.96 12.4613 40.32 14.3173 39.04 15.896C37.76 17.4747 36.096 18.7973 34.048 19.864C32.0427 20.9307 29.8667 21.784 27.52 22.424C25.216 23.0213 23.04 23.448 20.992 23.704C21.4613 24.8987 22.1013 26.328 22.912 27.992C23.7653 29.656 24.704 31.2773 25.728 32.856C26.752 34.4347 27.776 35.7573 28.8 36.824C29.8667 37.848 30.8053 38.36 31.616 38.36C32.3413 38.36 32.896 38.104 33.28 37.592C33.7067 37.0373 34.0053 36.3547 34.176 35.544C34.3467 34.7333 34.4533 33.944 34.496 33.176C34.5387 32.3653 34.56 31.704 34.56 31.192V30.808C34.56 30.424 34.6667 30.232 34.88 30.232C35.264 30.232 35.6053 30.4667 35.904 30.936C36.2027 31.4053 36.4373 31.9173 36.608 32.472C36.7787 33.0267 36.864 33.4533 36.864 33.752C36.9493 34.8187 36.736 35.8427 36.224 36.824C35.712 37.7627 35.008 38.5307 34.112 39.128C33.216 39.768 32.2347 40.088 31.168 40.088ZM6.336 42.136C5.39733 42.136 4.736 41.7947 4.352 41.112C3.968 40.472 3.776 39.6827 3.776 38.744C3.776 37.336 4.096 35.6293 4.736 33.624C5.376 31.576 6.18667 29.4213 7.168 27.16C8.192 24.856 9.28 22.5947 10.432 20.376C11.584 18.1573 12.672 16.1093 13.696 14.232C14.7627 12.3547 15.6373 10.84 16.32 9.688C16.832 8.792 17.3653 7.832 17.92 6.808C18.4747 5.74133 19.072 4.80267 19.712 3.992C19.9253 3.69333 20.288 3.50133 20.8 3.416C21.312 3.33066 21.7173 3.288 22.016 3.288C22.3573 3.288 22.7413 3.37333 23.168 3.544C23.5947 3.672 23.808 3.97067 23.808 4.44V4.568C23.808 5.12266 23.5733 5.67733 23.104 6.232C21.184 9.34667 19.264 12.3333 17.344 15.192C15.4667 18.0507 13.696 21.1227 12.032 24.408C11.648 25.0907 11.1147 26.072 10.432 27.352C9.74933 28.5893 9.024 29.9547 8.256 31.448C7.53067 32.9413 6.93333 34.4133 6.464 35.864C5.99467 37.272 5.80267 38.5093 5.888 39.576C5.888 39.7893 5.93067 40.024 6.016 40.28C6.144 40.536 6.35733 40.664 6.656 40.664C6.86933 40.664 6.976 40.856 6.976 41.24C6.976 41.4533 6.912 41.6453 6.784 41.816C6.69867 42.0293 6.54933 42.136 6.336 42.136Z" fill="#FFA818"/>
</svg>
