<svg width="50" height="50" viewBox="0 0 50 50" fill="none" xmlns="http://www.w3.org/2000/svg">
<path d="M7.8125 6.25C6.5693 6.25 5.37701 6.74386 4.49794 7.62294C3.61886 8.50201 3.125 9.6943 3.125 10.9375V37.5H46.875V10.9375C46.875 9.6943 46.3811 8.50201 45.5021 7.62294C44.623 6.74386 43.4307 6.25 42.1875 6.25H7.8125ZM0 39.0625H50C50 40.3057 49.5061 41.498 48.6271 42.3771C47.748 43.2561 46.5557 43.75 45.3125 43.75H4.6875C3.4443 43.75 2.25201 43.2561 1.37294 42.3771C0.49386 41.498 0 40.3057 0 39.0625H0Z" fill="#fff"/>
</svg>
