<svg width="50" height="50" viewBox="0 0 50 50" fill="none" xmlns="http://www.w3.org/2000/svg">
<path d="M42.251 11.9483C42.2363 11.9337 39.2676 14.8683 33.3594 20.7667L29.2139 16.6212L38.0469 7.78819C33.3984 4.99034 27.4268 5.70811 23.5547 9.58018C22.0746 11.0595 21.0094 12.9019 20.4661 14.9228C19.9227 16.9436 19.9203 19.0718 20.459 21.0939L20.5469 21.421L6.7041 35.2589C6.40137 35.5616 6.40137 36.0597 6.7041 36.3624L13.6084 43.2667C13.9111 43.5694 14.4092 43.5694 14.7119 43.2667L28.5449 29.4337L28.8721 29.5216C32.959 30.6105 37.3486 29.4776 40.3955 26.4308C44.2725 22.5587 44.9902 16.587 42.251 11.9483Z" fill="#fff"/>
</svg>
