<svg width="50" height="50" viewBox="0 0 50 50" fill="none" xmlns="http://www.w3.org/2000/svg">
<path d="M37.5 22.9167C40.6042 22.9167 43.4792 23.8959 45.8334 25.5417V16.6667C45.8334 14.3542 43.9792 12.5001 41.6667 12.5001H33.3334V8.33341C33.3334 6.02091 31.4792 4.16675 29.1667 4.16675H20.8334C18.5209 4.16675 16.6667 6.02091 16.6667 8.33341V12.5001H8.33335C6.02085 12.5001 4.18752 14.3542 4.18752 16.6667L4.16669 39.5834C4.16669 41.8959 6.02085 43.7501 8.33335 43.7501H24.3334C23.2764 41.5282 22.7991 39.0749 22.9462 36.6189C23.0932 34.1628 23.8596 31.784 25.1741 29.7041C26.4886 27.6242 28.3083 25.911 30.4636 24.7242C32.6189 23.5374 35.0396 22.9156 37.5 22.9167ZM20.8334 8.33341H29.1667V12.5001H20.8334V8.33341Z" fill="#fff"/>
<path d="M37.5 27.0833C31.75 27.0833 27.0833 31.7499 27.0833 37.4999C27.0833 43.2499 31.75 47.9166 37.5 47.9166C43.25 47.9166 47.9166 43.2499 47.9166 37.4999C47.9166 31.7499 43.25 27.0833 37.5 27.0833ZM40.9375 42.3958L36.4583 37.9166V31.2499H38.5416V37.0624L42.3958 40.9166L40.9375 42.3958Z" fill="#fff"/>
</svg>
