<svg width="901" height="935" viewBox="0 0 901 935" fill="none" xmlns="http://www.w3.org/2000/svg">
<g opacity="0.2" filter="url(#filter0_d_115_11)">
<path d="M392.907 770.562C392.907 772.407 391.346 773.906 389.422 773.906C387.499 773.906 385.938 772.407 385.938 770.562C385.938 768.716 387.499 767.218 389.422 767.218C391.346 767.24 392.907 768.716 392.907 770.562Z" fill="white"/>
<path d="M673.846 27.9287C675.771 27.9287 677.331 26.4317 677.331 24.585C677.331 22.7384 675.771 21.2415 673.846 21.2415C671.922 21.2415 670.362 22.7384 670.362 24.585C670.362 26.4317 671.922 27.9287 673.846 27.9287Z" fill="white"/>
<g opacity="0.7">
<path opacity="0.7" d="M129.685 509.802L629.474 11.4929" stroke="#969696" stroke-width="2" stroke-miterlimit="10" stroke-linecap="round" stroke-linejoin="round" stroke-dasharray="0.3 0.3"/>
<path opacity="0.7" d="M133.69 550.447L664.886 19.9604" stroke="#969696" stroke-width="2" stroke-miterlimit="10" stroke-linecap="round" stroke-linejoin="round" stroke-dasharray="0.3 0.3"/>
<path opacity="0.7" d="M149.732 578.738L695.975 32.8574" stroke="#969696" stroke-width="2" stroke-miterlimit="10" stroke-linecap="round" stroke-linejoin="round" stroke-dasharray="0.3 0.3"/>
<path opacity="0.7" d="M172.314 600.363L730.776 41.9763" stroke="#969696" stroke-width="2" stroke-miterlimit="10" stroke-linecap="round" stroke-linejoin="round" stroke-dasharray="0.3 0.3"/>
<path opacity="0.7" d="M189.895 627.09L765.87 50.7695" stroke="#969696" stroke-width="2" stroke-miterlimit="10" stroke-linecap="round" stroke-linejoin="round" stroke-dasharray="0.3 0.3"/>
<path opacity="0.7" d="M210.577 650.647L803.115 57.3701" stroke="#969696" stroke-width="2" stroke-miterlimit="10" stroke-linecap="round" stroke-linejoin="round" stroke-dasharray="0.3 0.3"/>
<path opacity="0.7" d="M231.099 674.378L831.625 72.894" stroke="#969696" stroke-width="2" stroke-miterlimit="10" stroke-linecap="round" stroke-linejoin="round" stroke-dasharray="0.3 0.3"/>
<path opacity="0.7" d="M251.645 698.066L866.516 81.9045" stroke="#969696" stroke-width="2" stroke-miterlimit="10" stroke-linecap="round" stroke-linejoin="round" stroke-dasharray="0.3 0.3"/>
<path opacity="0.7" d="M272.824 721.102L894.89 97.5806" stroke="#969696" stroke-width="2" stroke-miterlimit="10" stroke-linecap="round" stroke-linejoin="round" stroke-dasharray="0.3 0.3"/>
<path opacity="0.7" d="M291.537 746.701L918.513 118.12" stroke="#969696" stroke-width="2" stroke-miterlimit="10" stroke-linecap="round" stroke-linejoin="round" stroke-dasharray="0.3 0.3"/>
<path opacity="0.7" d="M312.762 769.693L945.169 135.554" stroke="#969696" stroke-width="2" stroke-miterlimit="10" stroke-linecap="round" stroke-linejoin="round" stroke-dasharray="0.3 0.3"/>
<path opacity="0.7" d="M335.275 791.362L971.438 153.402" stroke="#969696" stroke-width="2" stroke-miterlimit="10" stroke-linecap="round" stroke-linejoin="round" stroke-dasharray="0.3 0.3"/>
<path opacity="0.7" d="M354.26 816.656L967.932 201.711" stroke="#969696" stroke-width="2" stroke-miterlimit="10" stroke-linecap="round" stroke-linejoin="round" stroke-dasharray="0.3 0.3"/>
</g>
<g opacity="0.7">
<g opacity="0.7">
<path opacity="0.7" d="M424.246 792.469L924.058 294.16" stroke="#969696" stroke-width="2" stroke-miterlimit="10" stroke-linecap="round" stroke-linejoin="round" stroke-dasharray="0.3 0.3"/>
<path opacity="0.7" d="M428.251 833.114L959.469 302.627" stroke="#969696" stroke-width="2" stroke-miterlimit="10" stroke-linecap="round" stroke-linejoin="round" stroke-dasharray="0.3 0.3"/>
<path opacity="0.7" d="M444.316 861.405L990.559 315.524" stroke="#969696" stroke-width="2" stroke-miterlimit="10" stroke-linecap="round" stroke-linejoin="round" stroke-dasharray="0.3 0.3"/>
<path opacity="0.7" d="M466.875 883.03L1025.34 324.622" stroke="#969696" stroke-width="2" stroke-miterlimit="10" stroke-linecap="round" stroke-linejoin="round" stroke-dasharray="0.3 0.3"/>
<path opacity="0.7" d="M484.48 909.735L1060.43 333.415" stroke="#969696" stroke-width="2" stroke-miterlimit="10" stroke-linecap="round" stroke-linejoin="round" stroke-dasharray="0.3 0.3"/>
<path opacity="0.7" d="M505.161 933.314L1097.68 340.015" stroke="#969696" stroke-width="2" stroke-miterlimit="10" stroke-linecap="round" stroke-linejoin="round" stroke-dasharray="0.3 0.3"/>
<path opacity="0.7" d="M525.66 957.045L1126.19 355.561" stroke="#969696" stroke-width="2" stroke-miterlimit="10" stroke-linecap="round" stroke-linejoin="round" stroke-dasharray="0.3 0.3"/>
<path opacity="0.7" d="M546.206 980.733L1161.08 364.572" stroke="#969696" stroke-width="2" stroke-miterlimit="10" stroke-linecap="round" stroke-linejoin="round" stroke-dasharray="0.3 0.3"/>
<path opacity="0.7" d="M567.408 1003.77L1189.45 380.248" stroke="#969696" stroke-width="2" stroke-miterlimit="10" stroke-linecap="round" stroke-linejoin="round" stroke-dasharray="0.3 0.3"/>
<path opacity="0.7" d="M586.098 1029.35L1213.1 400.765" stroke="#969696" stroke-width="2" stroke-miterlimit="10" stroke-linecap="round" stroke-linejoin="round" stroke-dasharray="0.3 0.3"/>
<path opacity="0.7" d="M607.323 1052.36L1239.75 418.221" stroke="#969696" stroke-width="2" stroke-miterlimit="10" stroke-linecap="round" stroke-linejoin="round" stroke-dasharray="0.3 0.3"/>
<path opacity="0.7" d="M629.859 1074.01L1266 436.069" stroke="#969696" stroke-width="2" stroke-miterlimit="10" stroke-linecap="round" stroke-linejoin="round" stroke-dasharray="0.3 0.3"/>
<path opacity="0.7" d="M648.844 1099.32L1262.52 484.378" stroke="#969696" stroke-width="2" stroke-miterlimit="10" stroke-linecap="round" stroke-linejoin="round" stroke-dasharray="0.3 0.3"/>
</g>
</g>
<path d="M855.226 220.058C861.487 220.058 866.562 215.187 866.562 209.18C866.562 203.172 861.487 198.302 855.226 198.302C848.965 198.302 843.89 203.172 843.89 209.18C843.89 215.187 848.965 220.058 855.226 220.058Z" fill="url(#paint0_linear_115_11)"/>
<path d="M855.225 227.809C865.947 227.809 874.639 219.468 874.639 209.18C874.639 198.891 865.947 190.551 855.225 190.551C844.503 190.551 835.811 198.891 835.811 209.18C835.811 219.468 844.503 227.809 855.225 227.809Z" stroke="url(#paint1_linear_115_11)" stroke-miterlimit="10"/>
<path d="M608.906 745.246C608.906 752.519 602.751 758.425 595.171 758.425C587.591 758.425 581.436 752.519 581.436 745.246C581.436 737.972 587.591 732.067 595.171 732.067C602.751 732.067 608.906 737.951 608.906 745.246Z" stroke="url(#paint2_linear_115_11)" stroke-miterlimit="10"/>
<path d="M909.984 267.91C924.93 267.91 937.046 256.284 937.046 241.943C937.046 227.602 924.93 215.976 909.984 215.976C895.038 215.976 882.922 227.602 882.922 241.943C882.922 256.284 895.038 267.91 909.984 267.91Z" fill="url(#paint3_linear_115_11)"/>
<path d="M146.18 523.372C146.18 530.016 140.568 535.401 133.644 535.401C126.721 535.401 121.109 530.016 121.109 523.372C121.109 516.728 126.721 511.344 133.644 511.344C140.568 511.344 146.18 516.728 146.18 523.372Z" fill="url(#paint4_linear_115_11)"/>
<path d="M773.926 179.239L794.109 156.159" stroke="url(#paint5_linear_115_11)" stroke-miterlimit="10"/>
<path d="M780.125 184.211L811.826 147.974" stroke="url(#paint6_linear_115_11)" stroke-miterlimit="10"/>
<path d="M773.926 203.383L806.486 166.125" stroke="url(#paint7_linear_115_11)" stroke-miterlimit="10"/>
<path d="M158.195 447.945L178.356 424.865" stroke="url(#paint8_linear_115_11)" stroke-miterlimit="10"/>
<path d="M164.372 452.939L196.073 416.68" stroke="url(#paint9_linear_115_11)" stroke-miterlimit="10"/>
<path d="M158.195 472.089L190.733 434.831" stroke="url(#paint10_linear_115_11)" stroke-miterlimit="10"/>
<path d="M831.037 577.109L856.787 547.625" stroke="url(#paint11_linear_115_11)" stroke-miterlimit="10"/>
<path d="M838.934 583.471L879.414 537.159" stroke="url(#paint12_linear_115_11)" stroke-miterlimit="10"/>
<path d="M831.037 607.94L872.626 560.369" stroke="url(#paint13_linear_115_11)" stroke-miterlimit="10"/>
<g opacity="0.5">
<path opacity="0.5" d="M789.268 62.4072L759.038 94.7362" stroke="url(#paint14_linear_115_11)" stroke-miterlimit="10"/>
<path opacity="0.5" d="M797.934 69.8762L750.462 120.66" stroke="url(#paint15_linear_115_11)" stroke-miterlimit="10"/>
<path opacity="0.5" d="M825.177 57.5005L776.393 109.674" stroke="url(#paint16_linear_115_11)" stroke-miterlimit="10"/>
</g>
<path d="M146.18 563.083L184.533 519.203" stroke="url(#paint17_linear_115_11)" stroke-miterlimit="10"/>
<path d="M157.946 572.55L218.202 503.636" stroke="url(#paint18_linear_115_11)" stroke-miterlimit="10"/>
<path d="M146.18 608.982L208.065 538.158" stroke="url(#paint19_linear_115_11)" stroke-miterlimit="10"/>
<path d="M218.202 467.92C222.364 467.92 225.737 464.683 225.737 460.69C225.737 456.697 222.364 453.46 218.202 453.46C214.041 453.46 210.668 456.697 210.668 460.69C210.668 464.683 214.041 467.92 218.202 467.92Z" fill="white"/>
<path d="M223.157 612.5C223.157 616.495 219.786 619.73 215.623 619.73C211.459 619.73 208.088 616.495 208.088 612.5C208.088 608.505 211.459 605.27 215.623 605.27C219.786 605.27 223.157 608.505 223.157 612.5Z" fill="white"/>
<path d="M183.696 261.853C183.696 263.698 182.135 265.196 180.211 265.196C178.288 265.196 176.727 263.698 176.727 261.853C176.727 260.007 178.288 258.509 180.211 258.509C182.135 258.531 183.696 260.007 183.696 261.853Z" fill="white"/>
<path d="M851.831 358.492C853.756 358.492 855.316 356.995 855.316 355.149C855.316 353.302 853.756 351.805 851.831 351.805C849.907 351.805 848.347 353.302 848.347 355.149C848.347 356.995 849.907 358.492 851.831 358.492Z" fill="white"/>
<path d="M886.383 656.097C886.383 657.943 884.822 659.441 882.898 659.441C880.975 659.441 879.414 657.943 879.414 656.097C879.414 654.251 880.975 652.753 882.898 652.753C884.822 652.775 886.383 654.251 886.383 656.097Z" fill="white"/>
<path d="M146.18 216.41C150.341 216.41 153.715 213.173 153.715 209.18C153.715 205.187 150.341 201.949 146.18 201.949C142.019 201.949 138.645 205.187 138.645 209.18C138.645 213.173 142.019 216.41 146.18 216.41Z" fill="white"/>
<path d="M351.34 689.946C351.34 693.941 347.969 697.176 343.805 697.176C339.642 697.176 336.271 693.941 336.271 689.946C336.271 685.951 339.642 682.716 343.805 682.716C347.969 682.716 351.34 685.951 351.34 689.946Z" fill="white"/>
<path d="M838.572 685.582C838.572 689.577 835.2 692.812 831.037 692.812C826.873 692.812 823.502 689.577 823.502 685.582C823.502 681.587 826.873 678.352 831.037 678.352C835.2 678.352 838.572 681.587 838.572 685.582Z" fill="white"/>
<path d="M61.8936 372.953C66.055 372.953 69.4284 369.716 69.4284 365.722C69.4284 361.729 66.055 358.492 61.8936 358.492C57.7322 358.492 54.3587 361.729 54.3587 365.722C54.3587 369.716 57.7322 372.953 61.8936 372.953Z" fill="white"/>
<path d="M274.996 697.328L295.813 705.448L305.181 674.4L274.996 697.328Z" fill="#FF7E3D"/>
<path d="M218.203 671.404L235.128 712.874L300.09 658.29L218.203 671.404Z" fill="url(#paint20_linear_115_11)"/>
<path d="M951.482 329.985L942.408 373.669L868.463 330.875L951.482 329.985Z" fill="#FF7E3D"/>
<path d="M204.761 163.867L177.224 182.387L210.35 198.823L204.761 163.867Z" fill="#FF7E3D"/>
<path d="M879.595 403.327L848.301 391.538L852.329 427.102L879.595 403.327Z" fill="url(#paint21_linear_115_11)"/>
<path d="M592.841 86.8549C562.408 70.6144 524.711 59.9322 490.136 69.442C463.3 76.824 443.049 96.0607 427.753 117.729C410.534 142.112 398.406 169.447 385.553 196.087C377.679 212.393 369.103 228.069 357.609 242.355C345.254 257.727 330.547 271.363 314.142 282.696C297.172 294.399 278.482 303.54 258.66 309.858C236.056 317.066 212.569 321.061 189.376 326.098C151.249 334.414 110.814 347.332 85.8563 378.12C74.8143 391.733 68.2524 408.234 67.9582 425.539C67.6414 443.299 73.5698 460.799 82.9148 475.997C104.116 510.541 140.976 530.298 179.442 542.956C220.624 556.505 264.091 562.953 304.412 579.02C324.551 587.053 343.829 597.584 359.804 611.979C375.643 626.265 387.884 643.656 398.768 661.59C419.291 695.461 435.808 732.393 465.382 760.249C479.026 773.103 495.341 783.502 513.759 788.8C532.268 794.098 552.044 794.098 570.847 790.255C659.207 772.169 698.533 686.733 734.148 616.582C754.06 577.37 776.144 539.2 809.7 509.129C842.102 480.101 880.772 457.954 910.979 426.602C937.815 398.768 957.999 363.117 953.27 324.101C948.767 287.017 924.714 254.21 895.208 231C861.222 204.273 819.181 188.64 778.361 174.267C756.458 166.559 734.284 159.373 713.014 150.123C692.016 140.983 671.833 130.279 651.898 119.206C642.372 113.908 632.914 108.523 623.41 103.182C613.319 97.5155 602.842 92.6086 592.637 87.1589C591.846 86.7246 591.121 87.8971 591.913 88.3313C602.096 93.7593 611.78 100.077 621.827 105.744C631.33 111.085 640.788 116.47 650.314 121.768C669.796 132.602 689.527 143.067 710.005 152.056C750.621 169.903 794.019 181.084 834.522 199.236C872.287 216.149 907.812 238.86 930.484 273.208C940.892 288.971 948.314 306.775 950.351 325.403C952.478 344.836 948.405 364.268 939.761 381.876C921.659 418.764 887.922 445.079 855.09 469.549C837.667 482.532 820.063 495.407 804.156 510.106C788.77 524.306 775.533 540.351 764.038 557.59C740.597 592.742 724.192 631.563 704.076 668.451C684.436 704.449 660.406 740.491 625.062 764.07C592.411 785.847 549.397 797.528 510.682 784.762C472.578 772.191 447.393 738.906 428.206 706.686C407.841 672.468 390.916 634.928 359.849 608.049C329.166 581.517 288.822 568.967 249.677 558.936C208.315 548.341 165.119 539.656 128.644 517.032C96.4685 497.079 69.7231 462.557 70.9902 424.366C72.2574 385.676 104.841 358.471 139.324 343.88C180.71 326.359 227.141 324.817 269.227 309.271C304.48 296.244 335.728 273.794 358.966 245.265C379.603 219.949 391.233 189.791 405.737 161.131C418.25 136.401 432.437 111.042 453.91 92.3263C476.085 72.981 504.55 65.6858 534.056 69.6374C554.397 72.3514 573.744 79.2992 591.732 88.7004C592.954 89.2866 594.04 87.5062 592.841 86.8549Z" fill="url(#paint22_linear_115_11)"/>
<g opacity="0.4248">
<path opacity="0.4248" d="M604.607 23.9771C569.807 5.41347 526.679 -6.7886 487.15 4.11077C456.49 12.5567 433.342 34.5509 415.874 59.3024C396.166 87.2239 382.295 118.511 367.565 148.994C358.537 167.688 348.716 185.622 335.57 201.993C321.428 219.601 304.571 235.255 285.745 248.217C266.308 261.635 244.88 272.101 222.185 279.331C196.322 287.581 169.419 292.141 142.877 297.938C99.2743 307.447 53.0017 322.212 24.4462 357.428C11.8428 372.974 4.37584 391.82 4.0138 411.578C3.65177 431.878 10.4399 451.853 21.0973 469.223C45.3311 508.717 87.4855 531.319 131.473 545.779C178.628 561.281 228.385 568.663 274.544 587.053C297.647 596.259 319.754 608.331 338.059 624.832C356.206 641.181 370.235 661.112 382.702 681.674C406.167 720.429 425.083 762.702 458.933 794.575C474.524 809.274 493.146 821.151 514.212 827.208C535.368 833.266 557.95 833.266 579.446 828.88C680.521 808.189 725.504 710.42 766.256 630.151C789.064 585.251 814.339 541.523 852.805 507.088C889.914 473.869 934.172 448.51 968.747 412.62C999.429 380.79 1022.51 340.037 1017.08 295.419C1011.92 253.038 984.405 215.519 950.668 188.987C911.794 158.417 863.689 140.527 817.009 124.091C791.915 115.254 766.505 107.025 742.135 96.4297C718.105 85.9645 694.98 73.719 672.172 61.0176C661.266 54.96 650.427 48.7938 639.566 42.6711C628.026 36.1792 616.079 30.469 604.404 24.2377C603.612 23.8034 602.888 24.9759 603.68 25.4101C615.333 31.6197 626.488 38.7629 638.005 45.2331C648.866 51.3558 659.727 57.5003 670.611 63.5796C692.899 75.9771 715.48 87.962 738.922 98.2535C785.421 118.684 835.11 131.473 881.474 152.251C924.737 171.64 965.42 197.651 991.419 236.992C1003.34 255.057 1011.85 275.488 1014.18 296.852C1016.63 319.15 1011.94 341.405 1002.01 361.619C981.259 403.87 942.635 434.006 905.051 462.036C885.094 476.909 864.956 491.629 846.741 508.456C829.137 524.697 813.999 543.065 800.853 562.779C774.017 603.033 755.237 647.477 732.202 689.707C709.688 730.96 682.173 772.234 641.671 799.243C604.245 824.19 554.918 837.587 510.546 822.931C466.876 808.514 437.981 770.388 415.987 733.435C392.681 694.288 373.312 651.32 337.765 620.555C302.67 590.201 256.511 575.85 211.731 564.386C164.373 552.249 114.887 542.283 73.1399 516.403C36.2576 493.54 5.59771 453.938 7.02322 410.145C8.47136 365.787 45.8288 334.566 85.3585 317.826C132.74 297.764 185.936 296.005 234.132 278.18C274.431 263.286 310.182 237.579 336.769 204.967C360.392 175.982 373.697 141.482 390.283 108.697C404.628 80.3629 420.874 51.3341 445.47 29.8828C470.926 7.69322 503.554 -0.66586 537.427 3.89364C560.733 7.02015 582.885 14.9667 603.476 25.7575C604.743 26.3872 605.829 24.6068 604.607 23.9771Z" fill="url(#paint23_linear_115_11)"/>
</g>
<path d="M768.383 514.948C795.038 487.309 828.752 467.464 857.851 442.452C883.216 420.653 906.522 392.949 912.224 359.838C917.7 327.878 904.757 296.439 883.872 271.883C860.611 244.526 828.232 226.766 794.879 212.957C758.427 197.867 719.938 187.598 684.187 170.923C648.572 154.292 615.853 132.754 580.758 115.275C554.171 102.031 521.52 93.9327 491.946 102.118C469.183 108.415 451.534 124.134 438.003 142.242C422.549 162.911 411.665 186.404 400.646 209.396C394.333 222.597 388.155 235.842 379.851 248.044C370.551 261.679 359.306 274.076 346.567 284.845C333.511 295.897 318.848 305.189 303.145 312.376C285.066 320.648 265.629 325.49 246.147 329.637C210.713 337.171 173.785 343.25 144.031 364.658C131.518 373.669 120.702 385.132 114.389 399.006C108.076 412.859 106.809 428.209 109.999 442.973C116.855 474.629 141.066 500.119 169.645 515.838C234.223 551.38 319.98 545.279 375.461 597.171C402.388 622.357 416.982 656.271 435.763 686.863C452.439 714.046 473.912 741.077 505.296 753.301C537.314 765.785 573.789 759.272 603.272 743.596C635.154 726.66 658.505 698.695 676.833 669.081C681.449 661.612 685.793 654.012 689.957 646.305C694.256 638.38 697.56 630.086 701.61 622.052C701.995 621.271 700.795 620.576 700.388 621.358C696.383 629.326 691.541 636.947 687.287 644.785C683.01 652.666 678.575 660.483 673.824 668.125C664.479 683.172 654.002 697.61 641.602 710.485C617.686 735.323 585.442 753.996 549.713 756.644C532.539 757.925 515.207 755.125 499.753 747.699C484.66 740.447 471.944 729.483 461.173 717.129C438.478 691.096 424.902 659.44 406.438 630.759C397.251 616.494 386.752 602.859 373.742 591.591C360.663 580.257 345.345 571.572 329.279 564.777C296.266 550.794 260.628 544.498 226.19 534.662C191.887 524.87 157.019 510.866 134.007 483.422C113.167 458.562 103.279 423.91 120.114 394.577C136.45 366.113 169.645 350.958 200.961 342.686C237.594 333.002 275.992 329.333 310.159 312.333C338.986 298.003 363.899 276.486 381.82 250.519C397.116 228.373 406.551 202.796 418.951 179.13C429.902 158.265 442.551 137.118 461.196 121.659C480.52 105.635 504.934 99.5778 530.118 102.617C567.702 107.133 599.471 128.65 631.398 146.541C648.21 155.964 665.157 165.213 682.693 173.376C699.596 181.258 717.019 187.663 734.668 193.807C800.332 216.757 880.433 243.267 905.141 313.396C910.595 328.855 912.201 345.4 909.011 361.466C905.752 377.837 897.991 393.036 888.013 406.584C866.698 435.591 836.287 456.13 807.686 477.929C793.273 488.915 779.244 500.379 766.867 513.471C765.939 514.47 767.455 515.925 768.383 514.948Z" fill="url(#paint24_linear_115_11)"/>
</g>
<defs>
<filter id="filter0_d_115_11" x="0" y="0" width="1271" height="1108.32" filterUnits="userSpaceOnUse" color-interpolation-filters="sRGB">
<feFlood flood-opacity="0" result="BackgroundImageFix"/>
<feColorMatrix in="SourceAlpha" type="matrix" values="0 0 0 0 0 0 0 0 0 0 0 0 0 0 0 0 0 0 127 0" result="hardAlpha"/>
<feOffset dy="4"/>
<feGaussianBlur stdDeviation="2"/>
<feComposite in2="hardAlpha" operator="out"/>
<feColorMatrix type="matrix" values="0 0 0 0 0 0 0 0 0 0 0 0 0 0 0 0 0 0 0.25 0"/>
<feBlend mode="normal" in2="BackgroundImageFix" result="effect1_dropShadow_115_11"/>
<feBlend mode="normal" in="SourceGraphic" in2="effect1_dropShadow_115_11" result="shape"/>
</filter>
<linearGradient id="paint0_linear_115_11" x1="843.899" y1="209.189" x2="866.55" y2="209.189" gradientUnits="userSpaceOnUse">
<stop offset="0.0277" stop-color="#FFD24D"/>
<stop offset="0.7154" stop-color="#F6BE56"/>
<stop offset="1" stop-color="#F2B45A"/>
</linearGradient>
<linearGradient id="paint1_linear_115_11" x1="834.672" y1="209.189" x2="875.775" y2="209.189" gradientUnits="userSpaceOnUse">
<stop offset="0.0277" stop-color="#FFD24D"/>
<stop offset="0.7154" stop-color="#F6BE56"/>
<stop offset="1" stop-color="#F2B45A"/>
</linearGradient>
<linearGradient id="paint2_linear_115_11" x1="580.298" y1="745.238" x2="610.026" y2="745.238" gradientUnits="userSpaceOnUse">
<stop offset="0.0277" stop-color="#FFD24D"/>
<stop offset="0.7154" stop-color="#F6BE56"/>
<stop offset="1" stop-color="#F2B45A"/>
</linearGradient>
<linearGradient id="paint3_linear_115_11" x1="882.911" y1="241.953" x2="937.049" y2="241.953" gradientUnits="userSpaceOnUse">
<stop offset="0.0277" stop-color="#FFD24D"/>
<stop offset="0.7154" stop-color="#F6BE56"/>
<stop offset="1" stop-color="#F2B45A"/>
</linearGradient>
<linearGradient id="paint4_linear_115_11" x1="121.126" y1="523.366" x2="146.179" y2="523.366" gradientUnits="userSpaceOnUse">
<stop offset="0.0277" stop-color="#FFD24D"/>
<stop offset="0.7154" stop-color="#F6BE56"/>
<stop offset="1" stop-color="#F2B45A"/>
</linearGradient>
<linearGradient id="paint5_linear_115_11" x1="772.17" y1="168.692" x2="795.858" y2="166.529" gradientUnits="userSpaceOnUse">
<stop offset="0.0277" stop-color="#FFD24D"/>
<stop offset="0.7154" stop-color="#F6BE56"/>
<stop offset="1" stop-color="#F2B45A"/>
</linearGradient>
<linearGradient id="paint6_linear_115_11" x1="777.811" y1="167.62" x2="814.116" y2="164.304" gradientUnits="userSpaceOnUse">
<stop offset="0.0277" stop-color="#FFD24D"/>
<stop offset="0.7154" stop-color="#F6BE56"/>
<stop offset="1" stop-color="#F2B45A"/>
</linearGradient>
<linearGradient id="paint7_linear_115_11" x1="771.575" y1="186.319" x2="808.831" y2="182.917" gradientUnits="userSpaceOnUse">
<stop offset="0.0277" stop-color="#FFD24D"/>
<stop offset="0.7154" stop-color="#F6BE56"/>
<stop offset="1" stop-color="#F2B45A"/>
</linearGradient>
<linearGradient id="paint8_linear_115_11" x1="157.318" y1="436.406" x2="179.223" y2="436.406" gradientUnits="userSpaceOnUse">
<stop offset="0.0277" stop-color="#FFD24D"/>
<stop offset="0.1674" stop-color="#EBC34D"/>
<stop offset="0.4544" stop-color="#B69D4D"/>
<stop offset="0.8604" stop-color="#625F4E"/>
<stop offset="1" stop-color="#44494E"/>
</linearGradient>
<linearGradient id="paint9_linear_115_11" x1="163.512" y1="434.803" x2="196.936" y2="434.803" gradientUnits="userSpaceOnUse">
<stop offset="0.0277" stop-color="#FFD24D"/>
<stop offset="0.1674" stop-color="#EBC34D"/>
<stop offset="0.4544" stop-color="#B69D4D"/>
<stop offset="0.8604" stop-color="#625F4E"/>
<stop offset="1" stop-color="#44494E"/>
</linearGradient>
<linearGradient id="paint10_linear_115_11" x1="157.318" y1="453.462" x2="191.611" y2="453.462" gradientUnits="userSpaceOnUse">
<stop offset="0.0277" stop-color="#FFD24D"/>
<stop offset="0.1674" stop-color="#EBC34D"/>
<stop offset="0.4544" stop-color="#B69D4D"/>
<stop offset="0.8604" stop-color="#625F4E"/>
<stop offset="1" stop-color="#44494E"/>
</linearGradient>
<linearGradient id="paint11_linear_115_11" x1="828.993" y1="563.622" x2="858.809" y2="560.899" gradientUnits="userSpaceOnUse">
<stop offset="0.0277" stop-color="#FFD24D"/>
<stop offset="0.7154" stop-color="#F6BE56"/>
<stop offset="1" stop-color="#F2B45A"/>
</linearGradient>
<linearGradient id="paint12_linear_115_11" x1="836.198" y1="562.252" x2="882.132" y2="558.057" gradientUnits="userSpaceOnUse">
<stop offset="0.0277" stop-color="#FFD24D"/>
<stop offset="0.7154" stop-color="#F6BE56"/>
<stop offset="1" stop-color="#F2B45A"/>
</linearGradient>
<linearGradient id="paint13_linear_115_11" x1="828.233" y1="586.139" x2="875.382" y2="581.833" gradientUnits="userSpaceOnUse">
<stop offset="0.0277" stop-color="#FFD24D"/>
<stop offset="0.7154" stop-color="#F6BE56"/>
<stop offset="1" stop-color="#F2B45A"/>
</linearGradient>
<linearGradient id="paint14_linear_115_11" x1="773.242" y1="62.4798" x2="774.917" y2="94.6834" gradientUnits="userSpaceOnUse">
<stop offset="0.0277" stop-color="#FFD24D"/>
<stop offset="0.7154" stop-color="#F6BE56"/>
<stop offset="1" stop-color="#F2B45A"/>
</linearGradient>
<linearGradient id="paint15_linear_115_11" x1="772.794" y1="70.4249" x2="775.379" y2="120.144" gradientUnits="userSpaceOnUse">
<stop offset="0.0277" stop-color="#FFD24D"/>
<stop offset="0.7154" stop-color="#F6BE56"/>
<stop offset="1" stop-color="#F2B45A"/>
</linearGradient>
<linearGradient id="paint16_linear_115_11" x1="799.346" y1="58.0801" x2="801.999" y2="109.119" gradientUnits="userSpaceOnUse">
<stop offset="0.0277" stop-color="#FFD24D"/>
<stop offset="0.7154" stop-color="#F6BE56"/>
<stop offset="1" stop-color="#F2B45A"/>
</linearGradient>
<linearGradient id="paint17_linear_115_11" x1="143.54" y1="542.978" x2="187.136" y2="538.997" gradientUnits="userSpaceOnUse">
<stop offset="0.0277" stop-color="#FFD24D"/>
<stop offset="0.1674" stop-color="#EBC34D"/>
<stop offset="0.4544" stop-color="#B69D4D"/>
<stop offset="0.8604" stop-color="#625F4E"/>
<stop offset="1" stop-color="#44494E"/>
</linearGradient>
<linearGradient id="paint18_linear_115_11" x1="154.263" y1="540.939" x2="221.845" y2="534.767" gradientUnits="userSpaceOnUse">
<stop offset="0.0277" stop-color="#FFD24D"/>
<stop offset="0.1674" stop-color="#EBC34D"/>
<stop offset="0.4544" stop-color="#B69D4D"/>
<stop offset="0.8604" stop-color="#625F4E"/>
<stop offset="1" stop-color="#44494E"/>
</linearGradient>
<linearGradient id="paint19_linear_115_11" x1="142.409" y1="576.488" x2="211.8" y2="570.151" gradientUnits="userSpaceOnUse">
<stop offset="0.0277" stop-color="#FFD24D"/>
<stop offset="0.1674" stop-color="#EBC34D"/>
<stop offset="0.4544" stop-color="#B69D4D"/>
<stop offset="0.8604" stop-color="#625F4E"/>
<stop offset="1" stop-color="#44494E"/>
</linearGradient>
<linearGradient id="paint20_linear_115_11" x1="218.199" y1="685.584" x2="300.09" y2="685.584" gradientUnits="userSpaceOnUse">
<stop offset="0.0277" stop-color="#3A7563"/>
<stop offset="0.7154" stop-color="#59A985"/>
<stop offset="1" stop-color="#FFD24D"/>
</linearGradient>
<linearGradient id="paint21_linear_115_11" x1="844.486" y1="395.334" x2="865.947" y2="416.905" gradientUnits="userSpaceOnUse">
<stop offset="0.0277" stop-color="#FFD24D"/>
<stop offset="0.7154" stop-color="#F6BE56"/>
<stop offset="1" stop-color="#F2B45A"/>
</linearGradient>
<linearGradient id="paint22_linear_115_11" x1="118.163" y1="574.512" x2="934.222" y2="264.969" gradientUnits="userSpaceOnUse">
<stop offset="0.0277" stop-color="#FFD24D"/>
<stop offset="0.0356" stop-color="#F7CC4C"/>
<stop offset="0.0797" stop-color="#CEAE4A"/>
<stop offset="0.1292" stop-color="#A89348"/>
<stop offset="0.1831" stop-color="#887B45"/>
<stop offset="0.2427" stop-color="#6C6744"/>
<stop offset="0.3099" stop-color="#565742"/>
<stop offset="0.3884" stop-color="#454B41"/>
<stop offset="0.4856" stop-color="#3A4241"/>
<stop offset="0.6218" stop-color="#333D40"/>
<stop offset="1" stop-color="#313C40"/>
</linearGradient>
<linearGradient id="paint23_linear_115_11" x1="4.01109" y1="416.001" x2="1017.89" y2="416.001" gradientUnits="userSpaceOnUse">
<stop stop-color="#5C5A44"/>
<stop offset="0.6103" stop-color="#3F4541"/>
<stop offset="1" stop-color="#313C40"/>
</linearGradient>
<linearGradient id="paint24_linear_115_11" x1="317.875" y1="196.276" x2="731.562" y2="627.403" gradientUnits="userSpaceOnUse">
<stop stop-color="#313C40"/>
<stop offset="0.251" stop-color="#333E40"/>
<stop offset="0.397" stop-color="#3C4441"/>
<stop offset="0.5161" stop-color="#4A4E42"/>
<stop offset="0.6208" stop-color="#5E5D43"/>
<stop offset="0.716" stop-color="#786F44"/>
<stop offset="0.8042" stop-color="#988746"/>
<stop offset="0.8873" stop-color="#BDA249"/>
<stop offset="0.964" stop-color="#E8C14C"/>
<stop offset="1" stop-color="#FFD24D"/>
</linearGradient>
</defs>
</svg>
