<svg width="89" height="83" viewBox="0 0 89 83" fill="none" xmlns="http://www.w3.org/2000/svg">
<path fill-rule="evenodd" clip-rule="evenodd" d="M56.5963 53.4738C56.1563 54.2238 56.3463 55.2238 57.0463 55.7638C57.3563 56.0038 57.7563 56.1238 58.1463 56.1238C58.6063 56.1238 59.0564 55.9538 59.3764 55.6038C59.4464 55.5138 59.5264 55.4438 59.6064 55.3738C59.8764 55.1488 60.1538 54.9313 60.4313 54.7138C60.7088 54.4963 60.9863 54.2788 61.2563 54.0538C61.827 53.5868 62.3754 53.0974 62.9271 52.6049C63.0134 52.5279 63.0998 52.4508 63.1863 52.3738L63.1763 52.3838C63.3164 52.2637 63.4571 52.1443 63.5978 52.0248C64.0196 51.6668 64.4414 51.3087 64.8463 50.9338L64.8564 50.9245C65.373 50.4476 65.8897 49.9707 66.4163 49.4938C66.8342 49.1638 67.2583 48.8459 67.6817 48.5285C68.0282 48.2688 68.3743 48.0093 68.7163 47.7438C69.0664 47.4737 69.4089 47.1962 69.7514 46.9187C70.0938 46.6412 70.4363 46.3637 70.7863 46.0938C71.1127 45.8467 71.443 45.6095 71.7729 45.3725C72.1909 45.0722 72.6083 44.7724 73.0163 44.4538C73.3839 44.1694 73.7467 43.8766 74.1101 43.5833C74.7946 43.0309 75.4813 42.4767 76.2063 41.9738C76.8467 41.5631 77.5161 41.2154 78.1876 40.8666C78.4809 40.7143 78.7745 40.5618 79.0663 40.4038C79.7163 40.0538 80.3464 39.7038 80.9864 39.3338C82.1764 38.6438 83.3263 37.8838 84.4563 37.1038C84.9409 36.769 85.4022 36.3954 85.8607 36.024C85.9226 35.9738 85.9844 35.9237 86.0463 35.8738C86.1497 35.7899 86.2548 35.7061 86.3604 35.6218C86.8469 35.2336 87.3454 34.8357 87.7563 34.3838C88.1663 33.9538 88.4663 33.2938 88.3463 32.6838C88.2463 32.1438 88.0263 31.7438 87.6463 31.3438C87.3163 30.9938 86.9863 30.6438 86.6663 30.2938C86.0263 29.5538 85.4164 28.7938 84.8463 27.9938C84.6803 27.7625 84.5161 27.5304 84.3517 27.2982C83.9617 26.7471 83.5714 26.1955 83.1563 25.6538C81.9981 24.1461 80.8698 22.6085 79.7415 21.0708L79.7364 21.0638C79.2564 20.3238 78.8263 19.5638 78.4263 18.7738C78.4504 18.8099 78.4709 18.8497 78.4921 18.8909C78.5061 18.9181 78.5204 18.9459 78.5363 18.9738C77.6963 17.2838 76.8363 15.6038 75.7663 14.0438C75.2363 13.2838 74.6964 12.5438 74.0963 11.8338C73.7663 11.4538 73.4463 11.0638 73.1363 10.6738C72.9307 10.4149 72.7483 10.1445 72.5671 9.87565C72.5436 9.84076 72.5201 9.8059 72.4965 9.7711C72.5068 9.78541 72.5168 9.79959 72.5263 9.81376C72.2438 9.33648 71.9803 8.8497 71.7173 8.36384C71.4403 7.85209 71.1639 7.34135 70.8664 6.84376C70.2364 5.78376 69.5163 4.80375 68.7063 3.86375C68.5917 3.73079 68.4768 3.59805 68.362 3.46534C67.7254 2.72971 67.0894 1.99469 66.4964 1.22377C66.1564 0.793767 65.7864 0.33377 65.2464 0.13377C64.7764 -0.0362297 64.2963 -0.0562199 63.8363 0.14378C63.6463 0.22378 63.4763 0.333757 63.3263 0.463757C62.9363 0.603757 62.5863 0.843768 62.3263 1.19377C61.8963 1.76377 61.7863 2.44378 61.7163 3.14378C61.6163 4.01378 61.5363 4.88378 61.4563 5.76378C61.3763 6.68378 61.2863 7.60375 61.1563 8.52375C61.0463 9.35375 60.9364 10.1838 60.8764 11.0238C60.8064 12.0038 60.6963 12.9638 60.5563 13.9338C60.4855 14.4076 60.3999 14.8815 60.314 15.3569C60.2421 15.7544 60.1701 16.1531 60.1064 16.5538C60.0801 16.7254 60.0535 16.8973 60.0269 17.0695C59.9015 17.8805 59.7753 18.6971 59.6763 19.5138C59.6345 19.8159 59.5948 20.118 59.5603 20.4212C58.9856 20.3307 58.4138 20.2301 57.8363 20.1237C57.399 20.0303 56.9621 19.9341 56.5251 19.8379C54.7637 19.4501 53.001 19.0621 51.2063 18.8538L50.6168 18.7858C48.8234 18.5794 47.0308 18.3731 45.2463 18.0937C44.8524 18.0323 44.4585 17.9682 44.0645 17.9041C42.5976 17.6654 41.1281 17.4262 39.6462 17.3238C37.7362 17.1938 35.8263 17.0337 33.9163 16.8037C32.9363 16.6837 31.9563 16.6237 30.9663 16.6137C30.0927 16.6047 29.2272 16.6687 28.3625 16.7327L28.0763 16.7537C26.1663 16.9037 24.3363 17.5138 22.5563 18.2038C22.346 18.2849 22.1336 18.3648 21.9205 18.4448C20.9787 18.7988 20.0225 19.1582 19.1663 19.6638C17.9563 20.3838 16.8463 21.2838 15.8463 22.2638C14.6563 23.4338 13.5663 24.6737 12.6763 26.0937C12.0963 26.9937 11.5563 27.9137 11.0263 28.8437C10.1163 30.4437 9.2663 32.0737 8.4463 33.7137C7.67816 35.2596 7.14972 36.9346 6.63084 38.5792L6.56629 38.7837C6.44232 39.1782 6.31631 39.5732 6.1901 39.9688C5.75646 41.3281 5.32032 42.6952 4.95631 44.0738C4.00631 47.6638 3.38634 51.3237 2.86634 55.0037C2.59634 56.9738 2.34627 58.9338 2.16627 60.9138C1.99627 62.7338 1.81625 64.5637 1.51625 66.3737C1.39122 67.1239 1.25971 67.8724 1.12824 68.6206C0.933731 69.7276 0.73934 70.8339 0.566294 71.9438C0.526522 72.1988 0.485055 72.4551 0.443444 72.7122C0.181659 74.3297 -0.0859094 75.983 0.0262552 77.6137C0.0162756 77.5339 0.00623568 77.4536 0.00623568 77.3737V77.4037C0.00623568 78.3737 0.776348 79.1738 1.74635 79.1738C1.80805 79.1738 1.86907 79.1705 1.92924 79.1641C1.93481 79.174 1.94049 79.1839 1.94627 79.1938C2.4683 80.067 3.44973 80.1564 4.36907 80.2402L4.51622 80.2538C5.07622 80.3038 5.63628 80.3438 6.20628 80.3838C7.27601 80.4537 8.34652 80.5238 9.41624 80.5438C10.6462 80.5738 11.8663 80.5737 13.0963 80.5537C13.6356 80.5469 14.1726 80.5258 14.7088 80.5048C15.7335 80.4647 16.7556 80.4247 17.7862 80.4838C18.5266 80.545 19.2577 80.6527 19.9881 80.7603C20.5697 80.846 21.1512 80.9317 21.7363 80.9937C22.2553 81.0504 22.7764 81.0961 23.2975 81.1419C24.433 81.2415 25.569 81.3413 26.6863 81.5537C27.4063 81.7137 28.1163 81.9238 28.8263 82.1438C28.9646 82.1885 29.1012 82.2316 29.2368 82.2744C29.4347 82.3367 29.6305 82.3985 29.8263 82.4637L29.8342 82.4662C30.0214 82.5254 30.2091 82.5846 30.4062 82.6438C30.5562 82.6838 30.7063 82.7038 30.8563 82.6638C30.9863 82.6638 31.1163 82.6538 31.2463 82.6438C32.1363 82.5638 32.7462 81.7338 32.7762 80.8938C32.7942 80.4354 32.6345 80.0336 32.4713 79.623C32.4529 79.5768 32.4345 79.5304 32.4162 79.4838C32.3362 79.2838 32.2563 79.0837 32.1863 78.8737C31.4065 76.5703 30.7874 74.2106 30.1705 71.8594C30.0992 71.5874 30.0278 71.3154 29.9563 71.0438C29.6163 69.7538 29.3262 68.4538 29.0462 67.1438C28.8309 66.1361 28.5741 65.1403 28.3169 64.1426L28.3165 64.1414C28.2395 63.8424 28.1623 63.5434 28.0863 63.2437C27.9563 62.5837 27.8462 61.9338 27.7562 61.2638C27.6864 60.6857 27.6466 60.1076 27.6067 59.5295L27.6063 59.5237C27.5163 57.4437 27.4363 55.3637 27.3563 53.2737C27.2763 51.3637 27.2162 49.4437 27.2662 47.5237C27.2737 47.4441 27.2805 47.3645 27.2874 47.2849C27.3081 47.0445 27.3288 46.8041 27.3663 46.5638C27.3963 46.3838 27.4263 46.2013 27.4563 46.0188C27.4863 45.8363 27.5162 45.6538 27.5462 45.4738L27.5649 45.3974C27.8687 44.1525 28.1747 42.8987 28.5863 41.6738C28.6163 41.6038 28.6462 41.5238 28.6662 41.4438C28.695 41.3748 28.7204 41.3025 28.7463 41.2289C28.7655 41.1744 28.785 41.119 28.8063 41.0638V41.0438C28.8162 41.0238 28.8263 41.0037 28.8263 40.9838C28.8313 40.9738 28.8338 40.9638 28.8363 40.9538C28.8388 40.9438 28.8413 40.9338 28.8463 40.9238V40.9337C28.9663 40.6237 29.0963 40.3038 29.2363 40.0038L29.2383 40.0002C29.4076 39.7014 29.577 39.4026 29.7662 39.1137C30.0162 38.7637 30.2763 38.4238 30.5563 38.0938C30.7363 37.9038 30.9163 37.7238 31.1063 37.5438C31.2363 37.4338 31.3662 37.3338 31.5062 37.2338C31.5512 37.2088 31.5962 37.1813 31.6412 37.1538C31.6862 37.1263 31.7312 37.0988 31.7762 37.0738C32.4462 36.7538 33.1363 36.5137 33.8363 36.2737C34.7063 35.9937 35.5863 35.7438 36.4763 35.5438C38.0163 35.2738 39.5563 35.0738 41.1163 34.9438C42.2063 34.8938 43.3062 34.8438 44.3962 34.8438C44.6087 34.8438 44.8215 34.8431 45.0344 34.8424C45.994 34.8395 46.957 34.8365 47.9062 34.8938C48.2662 34.9238 48.6163 34.9738 48.9763 35.0338C49.2498 35.0971 49.5233 35.1616 49.7968 35.2261C50.3433 35.355 50.8898 35.4838 51.4363 35.6038C51.5598 35.6307 51.6837 35.6575 51.8079 35.6844C52.5584 35.8465 53.3184 36.0107 54.0563 36.2338C54.3518 36.3255 54.6462 36.4299 54.941 36.5345C55.514 36.7377 56.0886 36.9415 56.6763 37.0537C57.2406 37.162 57.805 37.1686 58.3741 37.1753C58.541 37.1772 58.7085 37.1792 58.8763 37.1837C58.925 37.1897 58.9738 37.1958 59.0225 37.202C59.0563 37.2063 59.0902 37.2107 59.124 37.215C59.2885 37.2362 59.4533 37.2574 59.6178 37.2737C59.6173 37.2846 59.6168 37.2955 59.6164 37.3064C59.6104 37.4421 59.6045 37.5779 59.5963 37.7138C59.5763 37.9338 59.5364 38.1638 59.4964 38.3838C59.4502 38.5967 59.4027 38.809 59.3552 39.0212C59.2177 39.6359 59.0804 40.2493 58.9763 40.8738C58.8064 41.8838 58.7363 42.9038 58.6663 43.9238C58.5475 45.4005 58.2774 46.8629 58.0089 48.3169C57.9611 48.5761 57.9133 48.835 57.8664 49.0938C57.6064 50.3338 57.3063 51.5538 56.9063 52.7538C56.8163 52.9838 56.7164 53.2138 56.6164 53.4338C56.6164 53.4538 56.6063 53.4638 56.5963 53.4738ZM61.6628 34.7085C61.4013 34.2092 60.9246 33.8259 60.3463 33.7838C60.1292 33.7682 59.9106 33.7392 59.6911 33.7101C59.3444 33.664 58.9952 33.6176 58.6462 33.6237C58.3662 33.6337 58.0762 33.6338 57.7862 33.6338C57.6364 33.6138 57.4861 33.5937 57.3263 33.5738C56.8337 33.4441 56.3492 33.2796 55.8644 33.1149C55.4142 32.962 54.9636 32.8089 54.5062 32.6837C53.8816 32.5099 53.2487 32.3733 52.6156 32.2367C52.2654 32.1612 51.9152 32.0857 51.5663 32.0038C51.4496 31.9766 51.333 31.9491 51.2164 31.9217C50.0041 31.6366 48.7943 31.352 47.5262 31.3337C46.6262 31.3237 45.7263 31.3138 44.8163 31.3138C42.8263 31.3138 40.8363 31.3937 38.8563 31.6137C37.0063 31.8137 35.1562 32.1337 33.3862 32.7137C33.2242 32.767 33.0607 32.8197 32.8964 32.8726C31.6412 33.2772 30.3397 33.6968 29.2962 34.4838C27.6062 35.7438 26.3063 37.6437 25.5763 39.6237C25.5263 39.7536 25.4762 39.8839 25.4363 40.0138C25.3763 40.1638 25.3262 40.3137 25.2762 40.4637V40.4438C25.0562 41.1138 24.8362 41.8037 24.6562 42.4937C24.6148 42.6517 24.5721 42.8105 24.5293 42.9698C24.3554 43.6176 24.1786 44.2757 24.0663 44.9337C24.0516 45.0208 24.0367 45.108 24.0218 45.1954L24.0214 45.1975C23.894 45.9434 23.7642 46.7035 23.7463 47.4637C23.7263 48.2137 23.7163 48.9738 23.7363 49.7238C23.7897 52.562 23.9064 55.3924 24.023 58.2219L24.0663 59.2737C24.1063 60.2137 24.1863 61.1537 24.3063 62.0837C24.4263 63.0937 24.6562 64.0738 24.9062 65.0638C24.9806 65.3648 25.0588 65.6671 25.1371 65.9702C25.28 66.523 25.4235 67.0784 25.5462 67.6338C25.6263 67.9899 25.7031 68.346 25.7799 68.7021C25.8951 69.2359 26.0103 69.77 26.1362 70.3037C26.4846 71.7594 26.8751 73.197 27.2657 74.6353L27.266 74.6365C27.3798 75.0554 27.4936 75.4743 27.6063 75.8938C27.8163 76.6938 28.0362 77.4837 28.2762 78.2737C27.8562 78.1637 27.4462 78.0638 27.0162 77.9838C26.1762 77.8338 25.3363 77.7537 24.4863 77.6837L24.4517 77.681C23.573 77.6119 22.6847 77.5421 21.8063 77.4138C21.5238 77.3726 21.2397 77.3279 20.9546 77.2831C20.2705 77.1756 19.5809 77.0673 18.8962 77.0038C17.6462 76.8938 16.4062 76.8638 15.1562 76.9138L13.6562 76.9738C12.8462 77.0138 12.0163 77.0437 11.2063 77.0237C9.40628 77.0037 7.62629 76.9338 5.83629 76.8138C5.37629 76.7838 4.92629 76.7438 4.46629 76.6938C4.21629 76.5538 3.91631 76.4637 3.60631 76.4637C3.57515 76.4637 3.54411 76.4646 3.51319 76.4662C3.67648 74.4457 4.03137 72.4348 4.38624 70.4337L4.46933 69.9703C4.78233 68.2261 5.09417 66.4884 5.29628 64.7338C5.41986 63.6806 5.52323 62.6216 5.62656 61.5631C5.71553 60.6517 5.80447 59.7406 5.90626 58.8337C6.11626 57.0337 6.37626 55.2338 6.65626 53.4438C6.92626 51.6338 7.24633 49.8237 7.60633 48.0237C8.00633 46.3437 8.42629 44.6737 8.93629 43.0237C9.46629 41.3237 10.0063 39.6138 10.5563 37.9138C10.8763 37.0238 11.2163 36.1638 11.5963 35.2938C11.7113 35.0638 11.8263 34.8363 11.9413 34.6088C12.0499 34.3938 12.1586 34.1788 12.2673 33.9617C12.2685 33.9593 12.2698 33.9569 12.271 33.9548C12.2732 33.951 12.2753 33.9477 12.2772 33.9446C12.2822 33.9364 12.2859 33.9304 12.2862 33.9245C13.381 31.7782 14.5942 29.6814 15.8764 27.6438C16.2875 27.0551 16.7247 26.484 17.1963 25.9384C17.5745 25.5226 17.973 25.1335 18.3742 24.7418L18.5563 24.5637C19.1562 24.0438 19.7564 23.5237 20.4063 23.0637C20.7063 22.8637 21.0063 22.6837 21.3263 22.5237C22.3391 22.0476 23.4044 21.6539 24.4573 21.2648C24.6207 21.2045 24.7838 21.1442 24.9463 21.0837C25.5263 20.8837 26.1163 20.7038 26.7063 20.5438C26.7951 20.5283 26.884 20.5125 26.9728 20.4967C27.3443 20.4305 27.7171 20.3641 28.0963 20.3238C28.3934 20.29 28.6951 20.2654 28.9983 20.2406C29.144 20.2287 29.2902 20.2167 29.4363 20.2038C30.2263 20.1738 31.0063 20.1638 31.7963 20.1638C32.6298 20.2355 33.4613 20.3252 34.2935 20.4151C35.3183 20.5257 36.3444 20.6365 37.3764 20.7137C39.1864 20.8437 40.9762 20.9937 42.7662 21.2837C44.7462 21.6037 46.7163 21.9038 48.7063 22.1338C50.4663 22.3238 52.2163 22.5638 53.9663 22.8938C54.2176 22.9499 54.4687 23.0066 54.7197 23.0632C56.3469 23.4305 57.9716 23.7972 59.6264 24.0138C60.0192 24.0629 60.4038 23.978 60.7299 23.7947C60.8847 23.8396 61.048 23.8638 61.2163 23.8638C62.1863 23.8638 62.9864 23.0538 62.9864 22.0938C62.9864 22.0438 62.9889 21.9913 62.9914 21.9388C62.9939 21.8863 62.9964 21.8338 62.9964 21.7838C63.1264 20.1538 63.3563 18.5238 63.6363 16.9138C63.6533 16.8172 63.6704 16.7207 63.6874 16.6242C63.9709 15.0217 64.2532 13.4255 64.3664 11.7938C64.4332 10.9143 64.5433 10.0378 64.6537 9.15934C64.7417 8.45966 64.8298 7.75867 64.8963 7.05375C64.9262 6.72506 64.956 6.39884 64.9859 6.07263C65.0161 5.74384 65.0462 5.41506 65.0763 5.08375C65.2363 5.27375 65.3963 5.45377 65.5563 5.63377C65.6306 5.72086 65.7054 5.80794 65.7804 5.89522C66.0584 6.21885 66.3386 6.54511 66.6064 6.88377C66.8964 7.25377 67.1663 7.63375 67.4363 8.02375C67.8563 8.72375 68.2563 9.43377 68.6463 10.1638C69.0763 10.9538 69.5363 11.7038 70.0363 12.4338C70.3653 12.9124 70.7392 13.3518 71.1117 13.7898C71.2373 13.9375 71.3628 14.085 71.4864 14.2338C71.9964 14.8638 72.4663 15.5038 72.9263 16.1638C73.6363 17.2738 74.2863 18.4138 74.8963 19.5938C74.8722 19.5576 74.8517 19.5179 74.8305 19.4767C74.8165 19.4495 74.8022 19.4216 74.7863 19.3938C74.89 19.6041 74.9911 19.8163 75.0921 20.0283C75.3321 20.532 75.5719 21.0353 75.8463 21.5138C76.2663 22.2538 76.7263 22.9638 77.2263 23.6538C77.4738 23.9895 77.7203 24.3279 77.9672 24.6668C78.5587 25.4786 79.1525 26.2936 79.7663 27.0838C80.3482 27.8364 80.9021 28.6091 81.4558 29.3816C81.7776 29.8304 82.0992 30.2791 82.4263 30.7238C82.9763 31.4638 83.5763 32.1638 84.1963 32.8438C83.9063 33.0938 83.6063 33.3338 83.3063 33.5638C82.6863 34.0338 82.0563 34.4838 81.4163 34.9238C79.9863 35.8338 78.5463 36.7338 77.0263 37.5038C76.8804 37.5777 76.7338 37.6508 76.587 37.724C75.999 38.0172 75.4085 38.3117 74.8564 38.6638C74.0564 39.1738 73.2963 39.7238 72.5563 40.3238C72.4025 40.4468 72.2493 40.5703 72.0961 40.6937C71.5518 41.1322 71.0082 41.5702 70.4463 41.9838C70.2762 42.1067 70.1049 42.229 69.9333 42.3515C69.3788 42.7476 68.8209 43.1461 68.2863 43.5738C67.6363 44.1038 66.9763 44.6338 66.3163 45.1538C66.0047 45.3966 65.6888 45.6311 65.3727 45.8659C64.9989 46.1434 64.6246 46.4212 64.2563 46.7138C63.8024 47.0812 63.3746 47.4901 62.9502 47.8956C62.7855 48.053 62.6213 48.21 62.4563 48.3638L62.4534 48.3663C62.1244 48.6555 61.7953 48.9446 61.4563 49.2338C61.4763 49.1238 61.4963 49.0238 61.5163 48.9138C61.5698 48.6027 61.6244 48.2917 61.6791 47.9806C61.7878 47.3617 61.8965 46.7427 61.9964 46.1238C62.1364 45.2438 62.1963 44.3738 62.2563 43.4938C62.3263 42.5038 62.4563 41.5238 62.6463 40.5438C62.6951 40.3134 62.7489 40.0831 62.8028 39.8519C62.9034 39.4207 63.0047 38.9865 63.0763 38.5438C63.1263 38.1523 63.1416 37.7608 63.1568 37.3693C63.1599 37.2908 63.1629 37.2123 63.1663 37.1338C63.1751 37.0108 63.1916 36.8879 63.209 36.7582C63.2115 36.7402 63.2139 36.7221 63.2163 36.7038C63.3763 35.7538 62.6463 34.8338 61.7063 34.7138C61.6918 34.7118 61.6773 34.7101 61.6628 34.7085ZM17.239 25.8892C17.2581 25.8681 17.2772 25.8466 17.2963 25.8238L17.239 25.8892Z" fill="#FFA818"/>
</svg>
