<svg width="50" height="50" viewBox="0 0 50 50" fill="none" xmlns="http://www.w3.org/2000/svg">
<path d="M15 25C19.8359 25 23.75 20.1074 23.75 14.0625C23.75 8.01758 19.8359 3.125 15 3.125C10.1641 3.125 6.25 8.01758 6.25 14.0625C6.25 20.1074 10.1641 25 15 25ZM21 28.125H20.3516C18.7266 29.1016 16.9219 29.6875 15 29.6875C13.0781 29.6875 11.2812 29.1016 9.64844 28.125H9C4.03125 28.125 0 33.1641 0 39.375V42.1875C0 44.7754 1.67969 46.875 3.75 46.875H26.25C28.3203 46.875 30 44.7754 30 42.1875V39.375C30 33.1641 25.9687 28.125 21 28.125ZM37.5 25C41.6406 25 45 20.8008 45 15.625C45 10.4492 41.6406 6.25 37.5 6.25C33.3594 6.25 30 10.4492 30 15.625C30 20.8008 33.3594 25 37.5 25ZM41.25 28.125H40.9531C39.8672 28.5938 38.7188 28.9062 37.5 28.9062C36.2812 28.9062 35.1328 28.5938 34.0469 28.125H33.75C32.1562 28.125 30.6875 28.7012 29.3984 29.6289C31.3047 32.1973 32.5 35.6055 32.5 39.375V43.125C32.5 43.3398 32.4609 43.5449 32.4531 43.75H46.25C48.3203 43.75 50 41.6504 50 39.0625C50 33.0176 46.0859 28.125 41.25 28.125Z" fill="currentColor"/>
</svg>
