<svg width="24" height="24" viewBox="0 0 24 24" fill="currentColor" xmlns="http://www.w3.org/2000/svg">
<path d="M13.78 18.29C13.78 18.41 13.93 18.29 13.78 18.29V18.29ZM10.43 15.59C10.82 15.76 10.12 14.99 10.43 15.59V15.59ZM5.40002 15.87C5.55002 16.13 5.40002 15.75 5.40002 15.87V15.87ZM11 16.26C10.73 15.84 10.8 16.32 11 16.58C11.48 17.05 11.18 16.32 11 16.26Z" fill="currentColor"/>
<path d="M20.24 19.06C19.71 19.69 19.24 18.99 18.61 19.19C17.51 19.19 18.7 18.69 18.67 18.19C18.09 17.74 17.43 18.8 17.05 19.09C16.1277 18.9308 15.2301 18.6517 14.38 18.26C13.39 17.7977 12.5051 17.1375 11.78 16.32C10.9687 15.5114 10.3322 14.5448 9.91003 13.48C9.3703 11.6138 9.08769 9.68264 9.07003 7.74001C9.14003 6.44001 10.51 7.88001 11.07 7.41001C10.86 6.74001 9.78003 6.53001 9.18003 6.25001C8.60003 6.25001 8.39003 5.70001 7.78003 5.66001C7.78003 4.93001 6.65003 5.33001 6.22003 4.82001C6.64003 3.74001 4.85003 4.82001 4.99003 3.91001C5.57003 2.71001 3.21003 2.91001 4.19003 3.97001C5.14003 4.51001 3.26003 4.90001 3.81003 5.26001C3.85653 5.35036 3.87892 5.45119 3.87501 5.55273C3.8711 5.65427 3.84103 5.75308 3.78772 5.83958C3.73441 5.92609 3.65966 5.99736 3.57071 6.04649C3.48177 6.09562 3.38164 6.12095 3.28003 6.12001C2.54003 6.19001 2.61003 7.21001 3.34003 6.67001C4.15003 6.42001 3.48003 6.78001 3.09003 6.85001C2.88422 6.88131 2.68893 6.96158 2.5206 7.08406C2.35227 7.20654 2.21582 7.36766 2.12272 7.55386C2.02962 7.74006 1.9826 7.94589 1.98561 8.15404C1.98862 8.3622 2.04158 8.56659 2.14003 8.75001C2.53069 9.87246 2.86445 11.0139 3.14003 12.17C3.75727 13.9225 4.67051 15.5562 5.84003 17C6.455 17.7718 7.18324 18.4461 8.00003 19C8.74999 19.5166 9.56772 19.9272 10.43 20.22C11.9672 20.6728 13.5579 20.9183 15.16 20.95C16.1319 20.9554 17.1023 20.8751 18.06 20.71C18.93 20.8 19.55 20.06 20.32 20.45C20.8 20.03 21.48 20.22 21.95 19.91C22.27 18.69 20.73 19.64 20.24 19.06ZM18.5 18.32C18.28 18.32 18.55 17.98 18.5 18.32V18.32ZM10.87 7.32001C10.77 7.32001 10.79 7.20001 10.71 7.17001C9.91003 6.80001 11.1 6.94001 10.87 7.36001V7.32001ZM17.63 18.71C17.28 18.63 17.91 18.46 17.63 18.71V18.71ZM14.82 18.82C14.59 18.82 15 18.68 14.82 18.82V18.82ZM12.94 17.64C12.81 17.64 12.94 17.51 12.94 17.64V17.64ZM12.72 17.47C12.36 17.47 12.63 17.24 12.72 17.47V17.47ZM12.3 17.11C11.97 17.19 12.3 16.77 12.3 17.11V17.11ZM6.30003 5.45001C5.77003 5.17001 6.41003 5.78001 5.96003 5.77001C5.72003 5.77001 5.27003 5.25001 5.42003 4.99001C5.72003 5.15001 6.25003 5.20001 6.34003 5.49001L6.30003 5.45001ZM5.38003 4.64001H5.27003C5.24003 4.37001 6.14003 4.58001 5.42003 4.68001L5.38003 4.64001ZM4.36003 3.85001C3.94003 3.66001 4.36003 2.92001 4.80003 3.27001C5.31003 4.00001 3.85003 3.19001 4.36003 3.85001ZM4.85003 4.54001C4.58003 4.65001 5.01003 4.33001 4.85003 4.54001V4.54001ZM5.33003 5.46001C5.93003 5.92001 4.99003 5.46001 4.61003 5.75001C4.00003 5.81001 5.27003 5.41001 5.33003 5.46001ZM5.50003 6.06001C5.85003 6.06001 7.38003 5.37001 6.87003 5.99001C7.34003 6.54001 6.97003 6.36001 6.66003 5.99001C6.94003 6.18001 6.72003 6.99001 6.29003 6.44001C5.86003 5.89001 5.79003 6.26001 6.12003 6.65001C5.80003 6.00001 4.88003 6.28001 4.21003 6.50001C3.78003 6.46001 5.34003 6.13001 5.50003 6.06001V6.06001ZM3.58003 7.51001C3.42003 7.91001 3.82003 8.04001 4.20003 8.11001C4.82003 7.94001 3.79003 7.83001 4.26003 7.67001C4.52003 7.67001 3.44003 7.41001 4.34003 7.29001C5.24003 7.17001 6.09003 6.77001 7.00003 6.58001C7.77113 6.41046 8.5617 6.34655 9.35003 6.39001C9.65003 6.74001 9.12003 7.33001 8.58003 7.39001C7.93115 7.59872 7.25978 7.72964 6.58003 7.78001C5.78003 7.68001 5.21003 8.39001 4.39003 8.48001C4.61003 8.08001 4.21003 8.34001 3.80003 8.32001C4.01003 9.14001 2.33003 8.11001 3.32003 7.91001C2.58003 7.65001 2.57003 8.43001 2.65003 8.91001C2.00003 8.00001 2.72003 7.62001 3.58003 7.51001V7.51001ZM5.46003 8.59001C5.24003 8.54001 5.63003 8.39001 5.46003 8.59001V8.59001ZM4.74003 9.47001C4.74003 9.47001 4.40003 9.39001 4.54003 9.30001C5.54003 9.43001 3.64003 8.97001 4.67003 9.08001C5.33003 9.06001 5.11003 9.44001 4.74003 9.47001ZM5.07003 9.64001C4.95003 9.76001 5.07003 9.40001 5.07003 9.64001V9.64001ZM4.36003 9.64001C3.92003 9.55001 4.57003 9.42001 4.36003 9.64001V9.64001ZM4.30003 11.07C4.23003 11.17 4.20003 10.99 4.30003 11.07V11.07ZM4.00003 10.9C3.45003 10.71 4.00003 10.69 4.00003 10.9V10.9ZM3.88003 12.18C3.62003 12.09 3.63003 11.68 3.51003 11.46C3.13003 10.43 3.92003 11.86 3.84003 12.18H3.88003ZM4.11003 10.69C3.42003 10.61 4.06003 10.2 4.11003 10.69V10.69ZM4.11003 10.35H4.02003C3.26003 10 4.47003 10.18 4.00003 10.35H4.11003ZM4.00003 9.56001C3.39003 9.25001 4.58003 9.20001 4.00003 9.56001V9.56001ZM4.21003 9.82001C3.87003 9.88001 4.26003 9.50001 4.21003 9.82001V9.82001ZM2.91003 9.89001C2.79003 9.97001 2.91003 9.66001 2.91003 9.89001V9.89001ZM3.00003 9.75001C2.84003 9.75001 3.00003 9.48001 3.00003 9.75001V9.75001ZM3.08003 8.75001C2.68003 8.65001 3.41003 8.50001 3.08003 8.75001V8.75001ZM3.34003 10.75C2.90003 10.65 3.22003 10.1 3.34003 10.75V10.75ZM3.64003 12C4.06003 12.51 3.90003 12.79 4.33003 13.41C3.77003 13.06 3.66003 12.21 3.33003 11.66C2.92003 10.76 3.56003 11.65 3.64003 12V12ZM7.73003 18.38C7.39003 18.31 7.16003 17.95 6.92003 17.72C6.23739 17.2204 5.69636 16.5518 5.35003 15.78C4.77431 15.0449 4.28447 14.2464 3.89003 13.4C3.48003 12.48 4.14003 13.47 4.24003 13.82C4.45003 14.5 5.12003 14.89 5.18003 15.34C5.92003 15.76 5.54003 16.46 6.18003 16.65C6.45003 16.51 6.48003 17.49 7.07003 17.29C6.74003 17.44 7.20003 17.62 7.37003 17.9C7.72003 17.85 8.54003 18.72 7.73003 18.42V18.38ZM4.62003 12C4.31003 11.93 4.95003 11.89 4.62003 12V12ZM4.82003 12.47C4.27003 12.33 5.34003 12.27 4.82003 12.47V12.47ZM6.21003 12.94C6.61003 12.77 6.37003 13.72 6.76003 13.84C7.52003 14.84 6.23003 13.84 5.76003 13.77C5.82003 13.77 5.38003 13.65 5.57003 13.61C5.43003 13.46 5.12003 12.95 5.83003 13.29C6.43003 13.53 6.48003 13.35 6.21003 12.9V12.94ZM7.52003 14.7C7.52003 14.85 6.80003 14.83 7.46003 15.12C7.08003 15.12 6.96003 15.12 7.46003 15.42C7.24003 15.59 7.89003 15.73 7.67003 15.99C8.33003 16.51 7.55003 16.12 7.27003 15.91C6.99003 15.7 6.42003 15.56 6.52003 15.41C7.33003 15.83 6.73003 15.41 6.37003 15.11C7.02003 15.27 5.86003 14.63 6.47003 14.8C6.66003 14.85 6.20003 14.42 6.80003 14.73C6.26003 14.21 7.27003 14.61 7.52003 14.66V14.7ZM8.00003 14.53C7.39003 14.39 8.00003 14.19 8.00003 14.53V14.53ZM7.83003 16.53C7.22003 16.27 8.22003 16.53 7.83003 16.53V16.53ZM7.38003 16.36C6.67003 16.13 7.90003 16.36 7.38003 16.36V16.36ZM7.29003 16.47C7.07003 16.47 7.29003 16.3 7.29003 16.47V16.47ZM6.21003 14.92C5.49003 14.62 6.01003 14.59 6.21003 14.92V14.92ZM5.67003 14.57C5.09003 14.24 5.59003 14.24 5.67003 14.57V14.57ZM5.67003 15.22C5.10003 14.78 5.60003 14.97 5.67003 15.22V15.22ZM5.52003 13.88C5.17003 13.88 5.65003 13.68 5.52003 13.88V13.88ZM8.00003 17.38C7.49003 17.23 8.00003 17.24 8.00003 17.38V17.38ZM7.63003 17H7.47003C6.79003 16.46 7.78003 16.62 8.22003 16.86C9.19003 17 8.00003 17.25 7.63003 17V17ZM10.33 18.65C9.65003 18.49 10.49 18.38 10.33 18.65V18.65ZM10.16 18.13C10.11 18.13 10.06 18.02 10.16 18.13V18.13ZM9.30003 16.79C8.71003 16.65 9.51003 16.6 9.66003 16.79C10.68 17 9.60003 17.05 9.30003 16.79ZM9.51003 18H9.40003L9.27003 17.94C8.71003 17.35 10.46 18.22 9.51003 18ZM9.23003 18.69C9.08003 18.75 9.23003 18.55 9.23003 18.69V18.69ZM9.52003 17.5L9.36003 17.45C8.70003 17 10.2 17.54 9.52003 17.45V17.5ZM9.68003 19.22C9.28003 19.06 9.94003 18.97 9.68003 19.22V19.22ZM9.78003 18.48C9.20003 18.34 10.14 18.35 9.78003 18.48V18.48ZM9.91003 17.87C9.47003 17.81 9.96003 17.66 9.91003 17.87V17.87ZM9.19003 16.99C9.65003 17.05 9.66003 17.26 9.19003 17.13C9.10003 17.13 8.95003 17.13 8.91003 16.96C8.15003 16.46 8.94003 16.71 9.19003 16.94V16.99ZM9.13003 18.99C8.93003 19.11 9.13003 18.77 9.13003 18.99V18.99ZM8.82003 18.48C8.29003 18.48 9.22003 18.22 8.82003 18.48V18.48ZM8.70003 18.83C8.44003 18.73 8.87003 18.75 8.70003 18.83V18.83ZM9.00003 17.94C8.48003 17.8 9.25003 17.76 9.00003 17.94V17.94ZM8.84003 17.37C8.56003 17.37 8.78003 17.21 8.84003 17.37V17.37ZM8.30003 16.42C7.73003 15.96 9.48003 16.8 8.30003 16.42V16.42ZM8.24003 16.61C8.24003 16.67 8.13003 16.52 8.24003 16.61V16.61ZM11.89 20.39C11.0003 20.2312 10.1381 19.9449 9.33003 19.54L9.00003 19.34C8.43003 19.03 8.50003 18.96 9.06003 19.27C9.25003 19.43 10.65 20 9.99003 19.62C9.70003 19.55 8.09003 18.67 9.15003 19.05C10.0333 19.5183 10.949 19.9227 11.89 20.26C12.6855 20.4488 13.5074 20.4995 14.32 20.41C14.97 20.74 15.65 20.33 16.32 20.62C14.8345 20.799 13.3292 20.7212 11.87 20.39H11.89ZM10.64 19.69C10.13 19.6 10.8 19.46 10.64 19.69V19.69ZM11.37 18.69C10.79 18.58 11.97 18.46 11.37 18.69V18.69ZM12.21 20C13.21 20.37 11.61 20.12 11.28 19.91C10.36 19.53 12 20 12.21 20ZM11.15 18.9C10.34 18.78 12.05 18.9 11.15 18.9V18.9ZM12.67 19.75C12.38 19.98 12.67 19.45 12.67 19.75V19.75ZM12.96 19.8C12.81 19.86 12.96 19.63 12.96 19.8V19.8ZM13.23 19.42C13.07 19.62 13.23 19.19 13.23 19.42V19.42ZM13.54 19.42C13.09 19.59 14.01 19.03 13.54 19.42V19.42ZM13.68 19.42C14.17 19 14.19 19.2 14.18 19.55C13.75 20.03 14.01 19.35 13.74 19.61C13.47 19.87 13.55 19.51 13.68 19.44V19.42ZM14.51 19.87C14.01 19.87 15.02 19.33 14.51 19.87V19.87ZM14.51 20.05C14.31 20.1 14.51 19.92 14.51 20.05V20.05ZM14.35 19.7C13.96 19.44 15.29 19.09 14.35 19.7V19.7ZM14.92 19.79H14.84C14.81 19.56 15.38 19.52 14.92 19.81V19.79ZM15.07 19.98C14.77 19.9 15.54 19.58 15.07 19.98V19.98ZM15.43 19.88C14.92 20.06 15.91 19.48 15.43 19.88V19.88ZM15.65 19.99L15.53 20.07C15.3 19.93 16.24 19.59 15.65 20V19.99ZM15.22 19.46C14.68 19.28 13.82 18.7 13.22 19.09C12.42 19.6 13.63 18.53 12.98 19.01C12.32 19.8 12.53 18.51 11.89 18.9C11.89 18.78 11.32 18.74 11.72 18.53C11.36 18.53 11.59 18.48 11.72 18.19C11.56 18.19 10.72 18.19 10.36 17.9C9.96003 17.38 10.43 17.6 10.84 17.67C10.17 17.79 11.08 18.17 11.52 17.96C11.32 17.87 11.09 17.44 10.52 17.06C9.83157 16.6826 9.12018 16.3486 8.39003 16.06C7.55003 15.56 8.57003 15.88 8.86003 16.14C9.70003 16.51 9.37003 15.63 8.86003 15.4C8.32003 15.4 8.19003 14.81 7.76003 14.84C8.43003 14.95 8.90003 14.67 8.15003 13.99C7.40003 13.31 8.45003 14.62 8.04003 14.43C7.85003 14.18 7.99003 13.83 7.39003 13.7C7.39003 13.93 7.31003 14.28 7.18003 13.8C7.01003 13.8 6.82003 14.01 6.68003 13.52C6.81003 12.95 6.12003 12.82 6.01003 12.46C6.61003 12.84 6.88003 12.54 6.46003 12.13C6.04003 11.72 6.13003 12.02 5.97003 12.13C5.38003 12.73 5.91003 11.13 5.65003 11.57C5.39003 11.57 5.54003 11.86 5.55003 12.22C4.69003 12.01 5.75003 12.67 6.00003 13.03C5.61003 12.63 5.68003 13.34 5.35003 13.03C5.24003 12.73 5.23003 12.26 4.68003 12.18C5.30003 11.96 4.32003 11.53 4.40003 11.51C4.75003 11.19 4.80003 10.75 5.22003 11.44C4.69003 11.44 5.22003 12.32 5.34003 12.04C5.34003 11.57 5.56003 11.04 4.75003 10.85C4.51003 11.17 4.10003 10.22 4.57003 10.42C4.51003 9.79001 5.31003 10.16 5.26003 9.89001C5.68003 9.71001 4.76003 9.12001 5.26003 8.89001C5.64003 9.13001 6.62003 8.53001 5.96003 8.45001C6.38003 8.45001 6.71003 8.63001 6.75003 8.21001C7.08003 8.28001 7.99003 8.57001 7.17003 8.12001C7.52993 7.97365 7.91197 7.88912 8.30003 7.87001C9.09003 7.26001 8.93003 8.87001 8.75003 9.32001C9.05003 9.11001 8.99003 10.26 8.89003 10.69C9.05003 10.47 9.12003 11.05 8.89003 11.46C8.89003 11.39 9.29003 11.33 9.01003 11.81C8.79003 11.34 8.70003 12.81 8.84003 12.13C9.21003 11.52 9.12003 12.13 9.23003 12.37C9.31003 12.92 9.55003 13.43 9.63003 13.93C9.98003 14.28 9.48003 14.04 9.48003 14.52C9.59003 14.38 10.06 14.71 10.05 15.2C10.05 14.42 10.14 15.02 10.52 15.2C10.7758 15.7235 11.1133 16.2028 11.52 16.62C11.89 17.05 11.52 16.75 11.66 17.01C11.9068 17.3506 12.2185 17.6391 12.5772 17.8587C12.9359 18.0784 13.3345 18.225 13.75 18.29C13.904 18.5578 14.139 18.7698 14.4211 18.8956C14.7032 19.0213 15.0179 19.0544 15.32 18.99C14.72 19.36 17 19.46 16.23 19.66C16 19.82 15.61 19.46 15.22 19.48V19.46ZM8.70003 15.89C8.46003 15.89 8.70003 15.69 8.70003 15.89V15.89ZM9.08003 16.11C8.90003 16.11 8.96003 15.87 9.08003 16.11V16.11ZM6.47003 12.46C6.23003 12.39 6.57003 12.37 6.47003 12.46V12.46ZM5.88003 12.46C5.62003 12.46 5.88003 12.12 5.88003 12.46V12.46ZM5.58003 12.38C5.48003 12.43 5.58003 12.27 5.58003 12.38V12.38ZM16.58 20.63C16.19 20.56 16.9 20.41 16.58 20.63V20.63ZM17.31 19.58H17.01C17.07 19.13 18.34 19.48 18.86 19.49C18.7 19.83 17.73 19.53 17.31 19.62V19.58ZM19.31 19.58C19.04 19.58 19.43 19.26 19.31 19.58V19.58ZM20.31 19.49C20.06 19.62 20.31 19.19 20.31 19.49V19.49ZM20.79 19.6C20.27 19.48 21.03 19.48 21.19 19.46C22.13 19.48 21.19 19.62 20.72 19.62L20.79 19.6Z" fill="black"/>
<path d="M6.51002 7.10997C7.51002 6.90997 6.13002 6.77997 5.82002 7.10997C6.00002 7.23997 6.23002 6.89997 6.51002 7.10997ZM5.69002 7.23997C5.69002 7.42997 5.87002 7.01997 5.69002 7.23997V7.23997ZM8.31002 6.75997C8.98002 6.64997 8.42002 6.34997 8.22002 6.85997C8.29002 6.99997 8.33002 6.80997 8.31002 6.75997ZM7.69002 6.85997C8.62002 7.21997 7.64002 5.85997 7.69002 6.85997V6.85997ZM4.77002 7.78997C4.88829 7.78398 5.00497 7.81933 5.10002 7.88997C5.85002 8.40997 5.00002 7.04997 4.77002 7.78997Z" fill="currentColor"/>
<path d="M4.81 7.42998C4.97 7.55998 5.1 7.21998 4.81 7.42998V7.42998ZM5.18 7.43998L5.32 7.55998C6 7.61998 5.21 7.09998 5.18 7.43998ZM10.69 16C10.78 16.3 10.69 15.61 10.69 16V16ZM5.91 11C6.01 11.18 6.09 10.82 5.91 11V11ZM6 11.61C6.19 11.95 6 11.1 6 11.61V11.61ZM6.21 11.12C6.54 11.33 5.93 10.6 6.21 11.12V11.12ZM5.8 10.3C5.87 10.45 6.04 10.46 6.17 10.5C7.49 11.11 5.22 9.49998 5.8 10.3ZM6.34 11.73C6.65 12.26 6.52 11.36 6.34 11.73V11.73ZM6.82 11.57C7.19 12.49 6.59 11.45 6.52 11.14C6.52857 11.4914 6.62481 11.8352 6.8 12.14C7.14 12.65 6.99 11.86 7.35 12.37C7.15 11.92 7.45 12.17 7.41 11.97C7.37 11.77 6.41 10.8 6.82 11.57ZM7.18 13.35C7.27 13.66 7.36 13.35 7.18 13.35V13.35ZM5.85 8.99998C5.91 9.13998 5.96 8.99998 5.85 8.99998V8.99998ZM6.52 9.41998C6.84 9.82998 6.69 9.05998 6.52 9.41998V9.41998ZM5.63 10.56L5.77 10.71C6.76 11 4.72 9.75998 5.63 10.56ZM6.33 10.19C7.33 10.6 6.24 9.91998 5.89 9.98998C6 10.12 6.21 10.06 6.33 10.19ZM6.15 9.74998C6.33 9.92998 6.97 10.26 6.46 9.80998C6.78 9.74998 6.46 9.64998 6.22 9.48998C5.78 8.81998 6.29 9.54998 6.15 9.74998V9.74998Z" fill="currentColor"/>
<path d="M5.50999 10.6399C4.97999 10.1999 5.66999 10.8499 5.44999 10.8399C4.89999 10.4399 5.12999 10.7299 5.44999 11.0399C5.77999 11.5399 6.04999 10.7399 5.50999 10.6399V10.6399ZM7.64999 11.2799C7.76999 11.3899 7.58999 10.5999 7.64999 11.2799V11.2799ZM8.66999 7.77994C8.66999 7.89994 8.73999 7.67994 8.66999 7.77994V7.77994ZM8.99999 12.4699C8.99999 12.6799 8.99999 12.2899 8.99999 12.4699V12.4699ZM8.70999 11.2499C8.78999 11.7099 8.80999 10.4699 8.70999 11.2499V11.2499ZM8.84999 11.4699V11.5699C9.05999 11.0599 8.88999 10.7799 8.84999 11.4699ZM8.74999 8.76994C8.60999 9.46994 8.47999 9.17994 8.66999 8.65994C8.61999 7.98994 8.21999 9.06994 8.39999 9.37994C8.68999 9.84994 8.99999 8.21994 8.74999 8.76994V8.76994ZM9.75999 14.7499C9.88999 15.0999 9.86999 14.3299 9.75999 14.7499V14.7499ZM8.40999 10.4699C8.40999 10.6699 8.40999 10.3299 8.40999 10.4699V10.4699ZM9.04999 12.1699C9.04999 12.4299 9.15999 11.7899 9.04999 12.1699V12.1699ZM9.49999 13.9999L9.56999 14.1099C9.70999 13.6199 9.20999 13.3199 9.49999 13.9999ZM7.93999 13.4799C8.20999 13.6999 7.80999 13.2499 7.93999 13.4799V13.4799ZM9.16999 12.6299C9.24999 12.9199 9.16999 12.2099 9.16999 12.6299V12.6299ZM8.13999 9.80994C8.28999 10.1399 8.08999 9.53994 8.13999 9.80994V9.80994Z" fill="currentColor"/>
<path d="M8.29997 10.23C8.53997 10.57 8.03997 9.59004 8.29997 10.23V10.23ZM8.23997 11.38C8.10997 10.38 7.81997 11.83 8.23997 12.07C8.36997 12.41 8.48997 12.27 8.53997 11.88C8.21997 11.88 8.61997 11.26 8.23997 11.38Z" fill="currentColor"/>
</svg>
