<svg width="32" height="32" viewBox="0 0 32 32" fill="none" xmlns="http://www.w3.org/2000/svg">
<path d="M18.3201 5.63999C17.2001 4.30666 16.2267 2.97333 16.0401 2.67999H16.0001C15.8134 2.95999 14.8401 4.30666 13.7201 5.63999C4.12005 17.8933 15.2401 26.16 15.2401 26.16L15.3334 26.2267C15.4134 27.4933 15.6267 29.3333 15.6267 29.3333H16.4534C16.4534 29.3333 16.6534 27.5067 16.7334 26.2267L16.8267 26.1467C16.8267 26.1467 27.9201 17.8933 18.3201 5.63999V5.63999ZM16.0001 25.9733C15.7664 25.7814 15.552 25.567 15.3601 25.3333L16.0001 12L16.6001 25.3333C16.4202 25.5647 16.2193 25.7789 16.0001 25.9733V25.9733Z" fill="#020202"/>
</svg>
