<svg width="24" height="24" viewBox="0 0 24 24" fill="none" xmlns="http://www.w3.org/2000/svg">
<path d="M17.8118 22.5038C17.7225 22.551 17.73 22.566 17.8155 22.5225C17.8418 22.5117 17.866 22.4962 17.8868 22.4768C17.8868 22.461 17.8868 22.461 17.8118 22.5038V22.5038ZM17.9918 22.4063C17.949 22.4415 17.949 22.4415 18 22.4183C18.0188 22.4094 18.0361 22.3975 18.051 22.383C18.051 22.3628 18.039 22.3673 17.9918 22.4063V22.4063ZM18.1088 22.3358C18.066 22.371 18.066 22.371 18.117 22.3478C18.1359 22.3387 18.1532 22.3266 18.168 22.3118C18.168 22.293 18.156 22.2968 18.1088 22.3358ZM18.2272 22.266C18.1845 22.3013 18.1845 22.3013 18.234 22.2773C18.2618 22.2623 18.285 22.2465 18.285 22.242C18.285 22.2233 18.273 22.227 18.2272 22.266ZM18.387 22.1603C18.3053 22.215 18.2767 22.2503 18.3517 22.2113C18.402 22.1805 18.4875 22.113 18.4725 22.113C18.4402 22.125 18.4132 22.1453 18.3862 22.1603H18.387ZM11.2148 0.0082591C11.16 0.0120091 10.9957 0.0270091 10.8517 0.0390091C7.44075 0.348009 4.2495 2.18401 2.22675 5.01226C1.10892 6.56345 0.382319 8.36169 0.10875 10.254C0.012 10.914 0 11.109 0 12.0038C0 12.8978 0.012 13.0898 0.10875 13.7498C0.762 18.258 3.969 22.0425 8.316 23.445C9.09825 23.6948 9.918 23.8673 10.8517 23.973C11.2147 24.012 12.7845 24.012 13.1475 23.973C14.7615 23.793 16.1243 23.3948 17.4728 22.707C17.6798 22.602 17.7187 22.5743 17.691 22.551C17.0332 21.6814 16.3809 20.8077 15.7343 19.9298L13.8165 17.34L11.4142 13.7813C10.6152 12.5897 9.80791 11.4037 8.9925 10.2233C8.98425 10.2233 8.97375 11.805 8.96925 13.734C8.961 17.1128 8.961 17.25 8.91825 17.328C8.87726 17.4222 8.8038 17.4986 8.71125 17.5433C8.637 17.5785 8.57025 17.586 8.2155 17.586H7.80975L7.704 17.52C7.63777 17.4775 7.58395 17.4183 7.548 17.3483L7.497 17.2425L7.50075 12.5393L7.509 7.83601L7.58325 7.74226C7.63067 7.68462 7.68904 7.63695 7.755 7.60201C7.85325 7.55476 7.89225 7.54726 8.298 7.54726C8.77425 7.54726 8.853 7.56601 8.97825 7.70326C9.9514 9.15066 10.9162 10.6037 11.8725 12.0623C13.4317 14.4263 15.5603 17.652 16.6065 19.2345L18.5093 22.1138L18.603 22.0515C19.5174 21.4438 20.3461 20.7161 21.0668 19.8878C22.5784 18.1576 23.5593 16.0283 23.892 13.755C23.9888 13.095 24.0007 12.8993 24.0007 12.0053C24.0007 11.1105 23.9888 10.9193 23.892 10.2593C23.2388 5.75101 20.0318 1.96651 15.6848 0.563259C14.8723 0.30595 14.0361 0.130822 13.1887 0.0405091C12.9615 0.0172591 11.4105 -0.0104909 11.2155 0.0097591L11.2148 0.0082591ZM16.125 7.26601C16.1808 7.29341 16.2306 7.33167 16.2714 7.37855C16.3122 7.42543 16.3433 7.47998 16.3627 7.53901C16.383 7.60201 16.3867 8.90626 16.383 11.844L16.3748 16.062L15.633 14.922L14.8868 13.7813V10.719C14.8868 8.73376 14.895 7.62076 14.9055 7.56601C14.9422 7.44047 15.0264 7.33419 15.1403 7.26976C15.2333 7.22251 15.2693 7.21876 15.6405 7.21876C15.9878 7.21876 16.0463 7.22251 16.1243 7.26601H16.125Z" fill="#020202"/>
</svg>
