<svg width="32" height="29" viewBox="0 0 32 29" fill="none" xmlns="http://www.w3.org/2000/svg">
<path d="M32 14.5853C32 12.4653 29.3453 10.456 25.2747 9.21068C26.2147 5.06268 25.7973 1.76134 23.9573 0.70401C23.5115 0.454304 23.0069 0.328613 22.496 0.34001V1.79334C22.796 1.79334 23.0373 1.85334 23.24 1.96401C24.1267 2.47334 24.512 4.40934 24.212 6.90134C24.14 7.51468 24.0227 8.16001 23.8787 8.81868C22.5155 8.49019 21.132 8.25278 19.7373 8.10801C18.9065 6.96173 18 5.8722 17.024 4.84668C19.1507 2.87068 21.1467 1.78801 22.504 1.78801V0.333344C20.7093 0.333344 18.3613 1.61201 15.9867 3.82934C13.6133 1.62668 11.264 0.36001 9.47067 0.36001V1.81334C10.8213 1.81334 12.824 2.89068 14.9507 4.85334C14.0373 5.81334 13.124 6.90134 12.256 8.10801C10.8584 8.25117 9.47247 8.49086 8.108 8.82534C7.9638 8.20106 7.85033 7.57008 7.768 6.93468C7.46133 4.44134 7.84 2.50534 8.72133 1.99068C8.916 1.87334 9.17067 1.82001 9.47067 1.82001V0.366677C8.924 0.366677 8.42667 0.48401 7.99733 0.730677C6.164 1.78801 5.75333 5.08134 6.69867 9.21734C2.64133 10.4707 0 12.472 0 14.5853C0 16.7053 2.65467 18.7147 6.72533 19.9587C5.78533 24.108 6.20267 27.4093 8.04267 28.4653C8.46667 28.7133 8.96267 28.8307 9.50933 28.8307C11.304 28.8307 13.652 27.552 16.0267 25.3347C18.4 27.5387 20.748 28.804 22.5427 28.804C23.0575 28.8149 23.5659 28.6888 24.016 28.4387C25.8493 27.3827 26.26 24.0893 25.3147 19.9533C29.3587 18.708 32 16.6987 32 14.5853ZM23.5067 10.2347C23.2533 11.1065 22.9597 11.9661 22.6267 12.8107C22.0815 11.7504 21.483 10.7184 20.8333 9.71868C21.76 9.85601 22.6533 10.0253 23.508 10.2347H23.5067ZM20.52 17.1813C20.0316 18.034 19.5072 18.8654 18.948 19.6733C16.991 19.8458 15.0227 19.8481 13.0653 19.68C11.9426 18.0763 10.9607 16.3784 10.1307 14.6053C10.9594 12.8281 11.9372 11.1243 13.0533 9.51201C15.0099 9.33917 16.9777 9.33649 18.9347 9.50401C19.476 10.28 20.0053 11.1093 20.5133 11.984C21.0093 12.8373 21.46 13.704 21.8707 14.5787C21.4554 15.464 21.0049 16.3322 20.52 17.1813V17.1813ZM22.6267 16.3333C22.9787 17.2067 23.28 18.0813 23.5267 18.9293C22.6733 19.1387 21.772 19.3147 20.84 19.4507C21.487 18.4419 22.0833 17.4015 22.6267 16.3333V16.3333ZM16.0133 23.2933C15.4067 22.6667 14.8 21.9693 14.2 21.2053C14.7867 21.232 15.3867 21.252 15.9933 21.252C16.6067 21.252 17.2133 21.2387 17.8067 21.2053C17.22 21.9693 16.6133 22.6667 16.0133 23.2933ZM11.16 19.4507C10.261 19.3204 9.36848 19.1487 8.48533 18.936C8.72667 18.0947 9.02667 17.2267 9.36533 16.36C9.63333 16.88 9.91467 17.4027 10.2213 17.9253C10.528 18.4467 10.84 18.956 11.16 19.4507ZM15.98 5.87734C16.5867 6.50401 17.1933 7.20134 17.7933 7.96534C17.2067 7.93868 16.6067 7.91868 16 7.91868C15.3867 7.91868 14.78 7.93201 14.1867 7.96534C14.7733 7.20134 15.38 6.50401 15.98 5.87734ZM11.1533 9.72001C10.5065 10.7266 9.9102 11.7648 9.36667 12.8307C9.02429 11.9806 8.72392 11.1142 8.46667 10.2347C9.32 10.032 10.2213 9.85601 11.1533 9.72001ZM5.25067 17.8853C2.94133 16.9013 1.448 15.6093 1.448 14.5853C1.448 13.5613 2.94133 12.2627 5.25067 11.2853C5.81067 11.044 6.424 10.828 7.05733 10.6267C7.42933 11.904 7.91867 13.2347 8.524 14.5987C7.95249 15.8816 7.46914 17.202 7.07733 18.5507C6.45793 18.3589 5.84831 18.1368 5.25067 17.8853V17.8853ZM8.76 27.2053C7.87333 26.6987 7.488 24.76 7.788 22.2693C7.86 21.656 7.97733 21.0093 8.12133 20.3507C9.39867 20.664 10.7947 20.9053 12.2627 21.0627C13.0936 22.2089 14 23.2985 14.976 24.324C12.8493 26.3 10.8533 27.3827 9.496 27.3827C9.23992 27.3855 8.98711 27.325 8.76 27.2067V27.2053ZM24.232 22.236C24.5387 24.728 24.16 26.6653 23.2787 27.18C23.084 27.2973 22.8293 27.3493 22.5293 27.3493C21.1787 27.3493 19.176 26.2733 17.0493 24.3093C18.0212 23.2881 18.9216 22.2011 19.744 21.056C21.1416 20.9129 22.5275 20.6732 23.892 20.3387C24.0427 20.9973 24.1587 21.6293 24.232 22.236V22.236ZM26.7427 17.8853C26.1827 18.1267 25.5693 18.3427 24.936 18.544C24.5373 17.1884 24.0473 15.8614 23.4693 14.572C24.0693 13.216 24.5507 11.892 24.916 10.62C25.5374 10.8124 26.1492 11.0345 26.7493 11.2853C29.0587 12.2693 30.552 13.5613 30.552 14.5853C30.5453 15.6093 29.052 16.908 26.7427 17.8853V17.8853Z" fill="#030303"/>
<path d="M15.9933 17.5667C16.784 17.5667 17.5423 17.2526 18.1014 16.6935C18.6605 16.1344 18.9746 15.376 18.9746 14.5853C18.9746 13.7946 18.6605 13.0363 18.1014 12.4772C17.5423 11.9181 16.784 11.604 15.9933 11.604C15.2026 11.604 14.4443 11.9181 13.8852 12.4772C13.3261 13.0363 13.012 13.7946 13.012 14.5853C13.012 15.376 13.3261 16.1344 13.8852 16.6935C14.4443 17.2526 15.2026 17.5667 15.9933 17.5667V17.5667Z" fill="#030303"/>
</svg>
